<svg xmlns="http://www.w3.org/2000/svg" width="800" height="220" viewBox="0 0 800 220">
  <defs>
    <clipPath id="card"><rect width="800" height="220" rx="4"/></clipPath>
  </defs>
  <g clip-path="url(#card)">
  <rect width="800" height="220" rx="4" fill="#262626"/>

  <!-- constellation background -->
  <g opacity="0.6">
  <line x1="730.0" y1="63.2" x2="691.5" y2="75.5" stroke="#303030" stroke-width="0.5"/>
  <line x1="730.0" y1="63.2" x2="721.9" y2="43.6" stroke="#303030" stroke-width="0.5"/>
  <line x1="730.0" y1="63.2" x2="670.4" y2="70.5" stroke="#303030" stroke-width="0.5"/>
  <line x1="730.0" y1="63.2" x2="721.7" y2="36.6" stroke="#303030" stroke-width="0.5"/>
  <line x1="691.5" y1="75.5" x2="667.9" y2="25.0" stroke="#303030" stroke-width="0.5"/>
  <line x1="691.5" y1="75.5" x2="721.7" y2="36.6" stroke="#303030" stroke-width="0.5"/>
  <line x1="721.9" y1="43.6" x2="670.4" y2="70.5" stroke="#303030" stroke-width="0.5"/>
  <line x1="721.9" y1="43.6" x2="721.7" y2="36.6" stroke="#303030" stroke-width="0.5"/>
  <line x1="670.4" y1="70.5" x2="667.9" y2="25.0" stroke="#303030" stroke-width="0.5"/>
  <line x1="670.4" y1="70.5" x2="622.3" y2="41.0" stroke="#303030" stroke-width="0.5"/>
  <line x1="670.4" y1="70.5" x2="626.4" y2="98.2" stroke="#303030" stroke-width="0.5"/>
  <line x1="670.4" y1="70.5" x2="614.3" y2="81.7" stroke="#303030" stroke-width="0.5"/>
  <line x1="682.6" y1="166.8" x2="715.5" y2="169.0" stroke="#303030" stroke-width="0.5"/>
  <line x1="682.6" y1="166.8" x2="717.9" y2="177.1" stroke="#303030" stroke-width="0.5"/>
  <line x1="682.6" y1="166.8" x2="698.3" y2="164.9" stroke="#303030" stroke-width="0.5"/>
  <line x1="715.5" y1="169.0" x2="717.9" y2="177.1" stroke="#303030" stroke-width="0.5"/>
  <line x1="715.5" y1="169.0" x2="698.3" y2="164.9" stroke="#303030" stroke-width="0.5"/>
  <line x1="717.9" y1="177.1" x2="718.7" y2="150.1" stroke="#303030" stroke-width="0.5"/>
  <line x1="667.9" y1="25.0" x2="622.3" y2="41.0" stroke="#303030" stroke-width="0.5"/>
  <line x1="667.9" y1="25.0" x2="721.7" y2="36.6" stroke="#303030" stroke-width="0.5"/>
  <line x1="642.4" y1="139.0" x2="626.4" y2="98.2" stroke="#303030" stroke-width="0.5"/>
  <line x1="627.8" y1="122.9" x2="610.9" y2="124.0" stroke="#303030" stroke-width="0.5"/>
  <line x1="627.8" y1="122.9" x2="626.4" y2="98.2" stroke="#303030" stroke-width="0.5"/>
  <line x1="627.8" y1="122.9" x2="614.3" y2="81.7" stroke="#303030" stroke-width="0.5"/>
  <line x1="698.3" y1="164.9" x2="718.7" y2="150.1" stroke="#303030" stroke-width="0.5"/>
  <line x1="622.3" y1="41.0" x2="626.4" y2="98.2" stroke="#303030" stroke-width="0.5"/>
  <line x1="610.9" y1="124.0" x2="626.4" y2="98.2" stroke="#303030" stroke-width="0.5"/>
  <line x1="626.4" y1="98.2" x2="614.3" y2="81.7" stroke="#303030" stroke-width="0.5"/>
  <circle cx="730.0" cy="63.2" r="1.1" fill="#383838"/>
  <circle cx="691.5" cy="75.5" r="2.0" fill="#484848"/>
  <circle cx="721.9" cy="43.6" r="2.5" fill="#484848"/>
  <circle cx="670.4" cy="70.5" r="1.1" fill="#383838"/>
  <circle cx="682.6" cy="166.8" r="2.3" fill="#383838"/>
  <circle cx="715.5" cy="169.0" r="1.6" fill="#383838"/>
  <circle cx="717.9" cy="177.1" r="1.5" fill="#383838"/>
  <circle cx="667.9" cy="25.0" r="2.5" fill="#484848"/>
  <circle cx="642.4" cy="139.0" r="1.4" fill="#383838"/>
  <circle cx="627.8" cy="122.9" r="2.6" fill="#383838"/>
  <circle cx="698.3" cy="164.9" r="1.7" fill="#383838"/>
  <circle cx="622.3" cy="41.0" r="1.4" fill="#383838"/>
  <circle cx="721.7" cy="36.6" r="2.0" fill="#383838"/>
  <circle cx="718.7" cy="150.1" r="1.7" fill="#383838"/>
  <circle cx="610.3" cy="195.7" r="1.9" fill="#383838"/>
  <circle cx="610.9" cy="124.0" r="1.0" fill="#484848"/>
  <circle cx="626.4" cy="98.2" r="1.5" fill="#383838"/>
  <circle cx="614.3" cy="81.7" r="1.4" fill="#383838"/>
  </g>

  <!-- top border -->
  <line x1="32" y1="0" x2="768" y2="0" stroke="#303030" stroke-width="1"/>

  <!-- header row -->
  <text x="36" y="40" fill="#e8e8e8" font-family="-apple-system, 'Segoe UI', sans-serif" font-size="16" font-weight="400" letter-spacing="-0.02em">ohm.</text>
  <text x="82" y="40" fill="#484848" font-family="-apple-system, 'Segoe UI', sans-serif" font-size="12" font-weight="300" letter-spacing="-0.01em">i built a neural net that watches me code</text>

  <!-- divider -->
  <line x1="36" y1="56" x2="764" y2="56" stroke="#303030" stroke-width="0.5"/>

  <!-- main content -->
  <text x="36" y="82" fill="#484848" font-family="-apple-system, 'Segoe UI', sans-serif" font-size="10" font-weight="300" letter-spacing="0.04em">currently building</text>
  <text x="36" y="102" fill="#c8c8c8" font-family="-apple-system, 'Segoe UI', sans-serif" font-size="13" font-weight="400" letter-spacing="-0.01em">timini-print  ·  instagram cli  ·  ohm-ctrl</text>

  <!-- stats row -->
  <text x="36" y="134" fill="#aaa" font-family="-apple-system, 'Segoe UI', sans-serif" font-size="11" font-weight="300">1.7k nodes</text>
  <text x="120" y="134" fill="#383838" font-family="-apple-system, 'Segoe UI', sans-serif" font-size="11" font-weight="300">·</text>
  <text x="132" y="134" fill="#aaa" font-family="-apple-system, 'Segoe UI', sans-serif" font-size="11" font-weight="300">9.2k edges</text>
  <text x="230" y="134" fill="#383838" font-family="-apple-system, 'Segoe UI', sans-serif" font-size="11" font-weight="300">·</text>
  <text x="242" y="134" fill="#aaa" font-family="-apple-system, 'Segoe UI', sans-serif" font-size="11" font-weight="300">44 projects</text>
  <text x="330" y="134" fill="#383838" font-family="-apple-system, 'Segoe UI', sans-serif" font-size="11" font-weight="300">·</text>
  <text x="342" y="134" fill="#aaa" font-family="-apple-system, 'Segoe UI', sans-serif" font-size="11" font-weight="300">17 milestones</text>

  <!-- divider -->
  <line x1="36" y1="152" x2="764" y2="152" stroke="#303030" stroke-width="0.5"/>

  <!-- bottom row -->
  <text x="36" y="176" fill="#c8c8c8" font-family="-apple-system, 'Segoe UI', sans-serif" font-size="12" font-weight="300">3 day build streak</text>
  <text x="36" y="196" fill="#484848" font-family="-apple-system, 'Segoe UI', sans-serif" font-size="10" font-weight="300">shipping since mar 2026</text>

  <!-- sparkline: 7d activity -->
  
  <text x="728" y="176" fill="#383838" font-family="-apple-system, 'Segoe UI', sans-serif" font-size="9" font-weight="300" text-anchor="middle">7d</text>
  <rect x="708.0" y="196.4" width="4" height="7.6" rx="1" fill="#c8c8c8" opacity="0.41"/>
  <rect x="744.0" y="180.0" width="4" height="24.0" rx="1" fill="#c8c8c8" opacity="0.75"/>
  

  <!-- updated -->
  <text x="764" y="210" fill="#383838" font-family="-apple-system, 'Segoe UI', sans-serif" font-size="9" font-weight="300" text-anchor="end">apr 4</text>

  </g>
</svg>