<svg xmlns="http://www.w3.org/2000/svg" width="800" height="220" viewBox="0 0 800 220">
  <defs>
    <clipPath id="card"><rect width="800" height="220" rx="4"/></clipPath>
  </defs>
  <g clip-path="url(#card)">
  <rect width="800" height="220" rx="4" fill="#262626"/>

  <!-- constellation background -->
  <g opacity="0.6">
  <line x1="623.4" y1="111.6" x2="609.6" y2="121.9" stroke="#303030" stroke-width="0.5"/>
  <line x1="623.4" y1="111.6" x2="569.1" y2="111.9" stroke="#303030" stroke-width="0.5"/>
  <line x1="623.4" y1="111.6" x2="632.4" y2="57.6" stroke="#303030" stroke-width="0.5"/>
  <line x1="623.4" y1="111.6" x2="631.7" y2="69.9" stroke="#303030" stroke-width="0.5"/>
  <line x1="623.4" y1="111.6" x2="608.9" y2="132.4" stroke="#303030" stroke-width="0.5"/>
  <line x1="623.4" y1="111.6" x2="623.6" y2="65.4" stroke="#303030" stroke-width="0.5"/>
  <line x1="623.4" y1="111.6" x2="628.6" y2="121.5" stroke="#303030" stroke-width="0.5"/>
  <line x1="623.4" y1="111.6" x2="628.7" y2="119.2" stroke="#303030" stroke-width="0.5"/>
  <line x1="643.3" y1="179.6" x2="667.5" y2="173.4" stroke="#303030" stroke-width="0.5"/>
  <line x1="643.3" y1="179.6" x2="630.0" y2="146.6" stroke="#303030" stroke-width="0.5"/>
  <line x1="609.6" y1="121.9" x2="600.6" y2="156.6" stroke="#303030" stroke-width="0.5"/>
  <line x1="609.6" y1="121.9" x2="608.9" y2="132.4" stroke="#303030" stroke-width="0.5"/>
  <line x1="609.6" y1="121.9" x2="628.6" y2="121.5" stroke="#303030" stroke-width="0.5"/>
  <line x1="600.6" y1="156.6" x2="628.6" y2="121.5" stroke="#303030" stroke-width="0.5"/>
  <line x1="600.6" y1="156.6" x2="628.7" y2="119.2" stroke="#303030" stroke-width="0.5"/>
  <line x1="600.6" y1="156.6" x2="630.0" y2="146.6" stroke="#303030" stroke-width="0.5"/>
  <line x1="631.7" y1="69.9" x2="623.6" y2="65.4" stroke="#303030" stroke-width="0.5"/>
  <line x1="631.7" y1="69.9" x2="628.7" y2="119.2" stroke="#303030" stroke-width="0.5"/>
  <line x1="608.9" y1="132.4" x2="628.6" y2="121.5" stroke="#303030" stroke-width="0.5"/>
  <line x1="608.9" y1="132.4" x2="630.0" y2="146.6" stroke="#303030" stroke-width="0.5"/>
  <line x1="701.1" y1="60.9" x2="694.8" y2="102.8" stroke="#303030" stroke-width="0.5"/>
  <line x1="701.6" y1="121.2" x2="694.8" y2="102.8" stroke="#303030" stroke-width="0.5"/>
  <line x1="667.5" y1="173.4" x2="630.0" y2="146.6" stroke="#303030" stroke-width="0.5"/>
  <line x1="628.6" y1="121.5" x2="628.7" y2="119.2" stroke="#303030" stroke-width="0.5"/>
  <line x1="628.6" y1="121.5" x2="630.0" y2="146.6" stroke="#303030" stroke-width="0.5"/>
  <line x1="742.2" y1="125.4" x2="694.8" y2="102.8" stroke="#303030" stroke-width="0.5"/>
  <circle cx="623.4" cy="111.6" r="1.5" fill="#383838"/>
  <circle cx="643.3" cy="179.6" r="2.0" fill="#383838"/>
  <circle cx="609.6" cy="121.9" r="2.7" fill="#383838"/>
  <circle cx="678.9" cy="21.5" r="2.8" fill="#383838"/>
  <circle cx="569.1" cy="111.9" r="2.7" fill="#383838"/>
  <circle cx="632.4" cy="57.6" r="2.7" fill="#383838"/>
  <circle cx="600.6" cy="156.6" r="1.2" fill="#484848"/>
  <circle cx="631.7" cy="69.9" r="2.2" fill="#484848"/>
  <circle cx="608.9" cy="132.4" r="2.3" fill="#383838"/>
  <circle cx="701.1" cy="60.9" r="1.8" fill="#383838"/>
  <circle cx="623.6" cy="65.4" r="1.9" fill="#383838"/>
  <circle cx="701.6" cy="121.2" r="1.3" fill="#383838"/>
  <circle cx="667.5" cy="173.4" r="1.2" fill="#383838"/>
  <circle cx="628.6" cy="121.5" r="1.3" fill="#484848"/>
  <circle cx="742.2" cy="125.4" r="2.1" fill="#383838"/>
  <circle cx="628.7" cy="119.2" r="1.1" fill="#484848"/>
  <circle cx="694.8" cy="102.8" r="1.3" fill="#484848"/>
  <circle cx="630.0" cy="146.6" r="2.0" fill="#484848"/>
  </g>

  <!-- top border -->
  <line x1="32" y1="0" x2="768" y2="0" stroke="#303030" stroke-width="1"/>

  <!-- header row -->
  <text x="36" y="40" fill="#e8e8e8" font-family="-apple-system, 'Segoe UI', sans-serif" font-size="16" font-weight="400" letter-spacing="-0.02em">ohm.</text>
  <text x="82" y="40" fill="#484848" font-family="-apple-system, 'Segoe UI', sans-serif" font-size="12" font-weight="300" letter-spacing="-0.01em">i built a neural net that watches me code</text>

  <!-- divider -->
  <line x1="36" y1="56" x2="764" y2="56" stroke="#303030" stroke-width="0.5"/>

  <!-- main content -->
  <text x="36" y="82" fill="#484848" font-family="-apple-system, 'Segoe UI', sans-serif" font-size="10" font-weight="300" letter-spacing="0.04em">currently building</text>
  <text x="36" y="102" fill="#c8c8c8" font-family="-apple-system, 'Segoe UI', sans-serif" font-size="13" font-weight="400" letter-spacing="-0.01em">sap  ·  sheets ai  ·  ohm-personal</text>

  <!-- stats row -->
  <text x="36" y="134" fill="#aaa" font-family="-apple-system, 'Segoe UI', sans-serif" font-size="11" font-weight="300">653 nodes</text>
  <text x="120" y="134" fill="#383838" font-family="-apple-system, 'Segoe UI', sans-serif" font-size="11" font-weight="300">·</text>
  <text x="132" y="134" fill="#aaa" font-family="-apple-system, 'Segoe UI', sans-serif" font-size="11" font-weight="300">6.7k edges</text>
  <text x="230" y="134" fill="#383838" font-family="-apple-system, 'Segoe UI', sans-serif" font-size="11" font-weight="300">·</text>
  <text x="242" y="134" fill="#aaa" font-family="-apple-system, 'Segoe UI', sans-serif" font-size="11" font-weight="300">14 projects</text>
  <text x="330" y="134" fill="#383838" font-family="-apple-system, 'Segoe UI', sans-serif" font-size="11" font-weight="300">·</text>
  <text x="342" y="134" fill="#aaa" font-family="-apple-system, 'Segoe UI', sans-serif" font-size="11" font-weight="300">15 milestones</text>

  <!-- divider -->
  <line x1="36" y1="152" x2="764" y2="152" stroke="#303030" stroke-width="0.5"/>

  <!-- bottom row -->
  <text x="36" y="176" fill="#c8c8c8" font-family="-apple-system, 'Segoe UI', sans-serif" font-size="12" font-weight="300">3 day build streak</text>
  <text x="36" y="196" fill="#484848" font-family="-apple-system, 'Segoe UI', sans-serif" font-size="10" font-weight="300">shipping since mar 2026</text>

  <!-- sparkline: 7d activity -->
  
  <text x="728" y="176" fill="#383838" font-family="-apple-system, 'Segoe UI', sans-serif" font-size="9" font-weight="300" text-anchor="middle">7d</text>
  <rect x="708.0" y="196.4" width="4" height="7.6" rx="1" fill="#c8c8c8" opacity="0.41"/>
  <rect x="744.0" y="180.0" width="4" height="24.0" rx="1" fill="#c8c8c8" opacity="0.75"/>
  

  <!-- updated -->
  <text x="764" y="210" fill="#383838" font-family="-apple-system, 'Segoe UI', sans-serif" font-size="9" font-weight="300" text-anchor="end">mar 25</text>

  </g>
</svg>