<svg xmlns="http://www.w3.org/2000/svg" width="800" height="220" viewBox="0 0 800 220">
  <defs>
    <clipPath id="card"><rect width="800" height="220" rx="4"/></clipPath>
  </defs>
  <g clip-path="url(#card)">
  <rect width="800" height="220" rx="4" fill="#262626"/>

  <!-- constellation background -->
  <g opacity="0.6">
  <line x1="598.2" y1="110.5" x2="611.0" y2="109.9" stroke="#303030" stroke-width="0.5"/>
  <line x1="598.2" y1="110.5" x2="598.5" y2="125.4" stroke="#303030" stroke-width="0.5"/>
  <line x1="598.2" y1="110.5" x2="625.6" y2="95.1" stroke="#303030" stroke-width="0.5"/>
  <line x1="598.2" y1="110.5" x2="565.5" y2="105.6" stroke="#303030" stroke-width="0.5"/>
  <line x1="733.4" y1="69.8" x2="732.0" y2="44.6" stroke="#303030" stroke-width="0.5"/>
  <line x1="733.4" y1="69.8" x2="679.7" y2="71.9" stroke="#303030" stroke-width="0.5"/>
  <line x1="733.4" y1="69.8" x2="744.5" y2="125.9" stroke="#303030" stroke-width="0.5"/>
  <line x1="733.4" y1="69.8" x2="678.6" y2="77.0" stroke="#303030" stroke-width="0.5"/>
  <line x1="732.0" y1="44.6" x2="727.7" y2="83.1" stroke="#303030" stroke-width="0.5"/>
  <line x1="732.0" y1="44.6" x2="696.6" y2="86.2" stroke="#303030" stroke-width="0.5"/>
  <line x1="727.7" y1="83.1" x2="696.6" y2="86.2" stroke="#303030" stroke-width="0.5"/>
  <line x1="727.7" y1="83.1" x2="679.7" y2="71.9" stroke="#303030" stroke-width="0.5"/>
  <line x1="727.7" y1="83.1" x2="744.5" y2="125.9" stroke="#303030" stroke-width="0.5"/>
  <line x1="727.7" y1="83.1" x2="727.8" y2="142.4" stroke="#303030" stroke-width="0.5"/>
  <line x1="732.4" y1="147.7" x2="744.5" y2="125.9" stroke="#303030" stroke-width="0.5"/>
  <line x1="732.4" y1="147.7" x2="727.8" y2="142.4" stroke="#303030" stroke-width="0.5"/>
  <line x1="625.9" y1="53.6" x2="611.0" y2="109.9" stroke="#303030" stroke-width="0.5"/>
  <line x1="625.9" y1="53.6" x2="678.6" y2="77.0" stroke="#303030" stroke-width="0.5"/>
  <line x1="611.0" y1="109.9" x2="598.5" y2="125.4" stroke="#303030" stroke-width="0.5"/>
  <line x1="611.0" y1="109.9" x2="565.5" y2="105.6" stroke="#303030" stroke-width="0.5"/>
  <line x1="696.6" y1="86.2" x2="679.7" y2="71.9" stroke="#303030" stroke-width="0.5"/>
  <line x1="696.6" y1="86.2" x2="678.6" y2="77.0" stroke="#303030" stroke-width="0.5"/>
  <line x1="696.6" y1="86.2" x2="665.3" y2="46.3" stroke="#303030" stroke-width="0.5"/>
  <line x1="679.7" y1="71.9" x2="665.3" y2="46.3" stroke="#303030" stroke-width="0.5"/>
  <line x1="679.7" y1="71.9" x2="673.5" y2="65.0" stroke="#303030" stroke-width="0.5"/>
  <line x1="744.5" y1="125.9" x2="727.8" y2="142.4" stroke="#303030" stroke-width="0.5"/>
  <line x1="678.6" y1="77.0" x2="625.6" y2="95.1" stroke="#303030" stroke-width="0.5"/>
  <line x1="678.6" y1="77.0" x2="665.3" y2="46.3" stroke="#303030" stroke-width="0.5"/>
  <line x1="678.6" y1="77.0" x2="673.5" y2="65.0" stroke="#303030" stroke-width="0.5"/>
  <line x1="598.5" y1="125.4" x2="565.5" y2="105.6" stroke="#303030" stroke-width="0.5"/>
  <line x1="665.3" y1="46.3" x2="673.5" y2="65.0" stroke="#303030" stroke-width="0.5"/>
  <circle cx="598.2" cy="110.5" r="1.2" fill="#383838"/>
  <circle cx="604.2" cy="166.6" r="1.7" fill="#383838"/>
  <circle cx="733.4" cy="69.8" r="1.5" fill="#383838"/>
  <circle cx="732.0" cy="44.6" r="2.5" fill="#383838"/>
  <circle cx="727.7" cy="83.1" r="1.1" fill="#383838"/>
  <circle cx="732.4" cy="147.7" r="2.1" fill="#383838"/>
  <circle cx="625.9" cy="53.6" r="2.4" fill="#484848"/>
  <circle cx="611.0" cy="109.9" r="1.2" fill="#383838"/>
  <circle cx="696.6" cy="86.2" r="1.1" fill="#484848"/>
  <circle cx="679.7" cy="71.9" r="2.1" fill="#484848"/>
  <circle cx="744.5" cy="125.9" r="2.4" fill="#383838"/>
  <circle cx="678.6" cy="77.0" r="1.3" fill="#383838"/>
  <circle cx="598.5" cy="125.4" r="2.4" fill="#383838"/>
  <circle cx="727.8" cy="142.4" r="2.6" fill="#383838"/>
  <circle cx="625.6" cy="95.1" r="2.4" fill="#383838"/>
  <circle cx="565.5" cy="105.6" r="2.5" fill="#383838"/>
  <circle cx="665.3" cy="46.3" r="1.3" fill="#383838"/>
  <circle cx="673.5" cy="65.0" r="2.8" fill="#383838"/>
  </g>

  <!-- top border -->
  <line x1="32" y1="0" x2="768" y2="0" stroke="#303030" stroke-width="1"/>

  <!-- header row -->
  <text x="36" y="40" fill="#e8e8e8" font-family="-apple-system, 'Segoe UI', sans-serif" font-size="16" font-weight="400" letter-spacing="-0.02em">ohm.</text>
  <text x="82" y="40" fill="#484848" font-family="-apple-system, 'Segoe UI', sans-serif" font-size="12" font-weight="300" letter-spacing="-0.01em">i built a neural net that watches me code</text>

  <!-- divider -->
  <line x1="36" y1="56" x2="764" y2="56" stroke="#303030" stroke-width="0.5"/>

  <!-- main content -->
  <text x="36" y="82" fill="#484848" font-family="-apple-system, 'Segoe UI', sans-serif" font-size="10" font-weight="300" letter-spacing="0.04em">currently building</text>
  <text x="36" y="102" fill="#c8c8c8" font-family="-apple-system, 'Segoe UI', sans-serif" font-size="13" font-weight="400" letter-spacing="-0.01em">timini-print  ·  instagram cli  ·  ohm-ctrl</text>

  <!-- stats row -->
  <text x="36" y="134" fill="#aaa" font-family="-apple-system, 'Segoe UI', sans-serif" font-size="11" font-weight="300">1.7k nodes</text>
  <text x="120" y="134" fill="#383838" font-family="-apple-system, 'Segoe UI', sans-serif" font-size="11" font-weight="300">·</text>
  <text x="132" y="134" fill="#aaa" font-family="-apple-system, 'Segoe UI', sans-serif" font-size="11" font-weight="300">7.6k edges</text>
  <text x="230" y="134" fill="#383838" font-family="-apple-system, 'Segoe UI', sans-serif" font-size="11" font-weight="300">·</text>
  <text x="242" y="134" fill="#aaa" font-family="-apple-system, 'Segoe UI', sans-serif" font-size="11" font-weight="300">44 projects</text>
  <text x="330" y="134" fill="#383838" font-family="-apple-system, 'Segoe UI', sans-serif" font-size="11" font-weight="300">·</text>
  <text x="342" y="134" fill="#aaa" font-family="-apple-system, 'Segoe UI', sans-serif" font-size="11" font-weight="300">17 milestones</text>

  <!-- divider -->
  <line x1="36" y1="152" x2="764" y2="152" stroke="#303030" stroke-width="0.5"/>

  <!-- bottom row -->
  <text x="36" y="176" fill="#c8c8c8" font-family="-apple-system, 'Segoe UI', sans-serif" font-size="12" font-weight="300">3 day build streak</text>
  <text x="36" y="196" fill="#484848" font-family="-apple-system, 'Segoe UI', sans-serif" font-size="10" font-weight="300">shipping since mar 2026</text>

  <!-- sparkline: 7d activity -->
  
  <text x="728" y="176" fill="#383838" font-family="-apple-system, 'Segoe UI', sans-serif" font-size="9" font-weight="300" text-anchor="middle">7d</text>
  <rect x="708.0" y="196.4" width="4" height="7.6" rx="1" fill="#c8c8c8" opacity="0.41"/>
  <rect x="744.0" y="180.0" width="4" height="24.0" rx="1" fill="#c8c8c8" opacity="0.75"/>
  

  <!-- updated -->
  <text x="764" y="210" fill="#383838" font-family="-apple-system, 'Segoe UI', sans-serif" font-size="9" font-weight="300" text-anchor="end">apr 4</text>

  </g>
</svg>