<svg xmlns="http://www.w3.org/2000/svg" width="800" height="220" viewBox="0 0 800 220">
  <defs>
    <clipPath id="card"><rect width="800" height="220" rx="4"/></clipPath>
  </defs>
  <g clip-path="url(#card)">
  <rect width="800" height="220" rx="4" fill="#262626"/>

  <!-- constellation background -->
  <g opacity="0.6">
  <line x1="618.9" y1="136.6" x2="582.3" y2="113.6" stroke="#303030" stroke-width="0.5"/>
  <line x1="618.9" y1="136.6" x2="565.3" y2="130.9" stroke="#303030" stroke-width="0.5"/>
  <line x1="618.9" y1="136.6" x2="583.0" y2="95.3" stroke="#303030" stroke-width="0.5"/>
  <line x1="569.5" y1="68.6" x2="582.3" y2="113.6" stroke="#303030" stroke-width="0.5"/>
  <line x1="643.1" y1="138.7" x2="698.2" y2="121.9" stroke="#303030" stroke-width="0.5"/>
  <line x1="643.1" y1="138.7" x2="655.9" y2="194.0" stroke="#303030" stroke-width="0.5"/>
  <line x1="708.0" y1="103.5" x2="730.0" y2="102.6" stroke="#303030" stroke-width="0.5"/>
  <line x1="708.0" y1="103.5" x2="698.2" y2="121.9" stroke="#303030" stroke-width="0.5"/>
  <line x1="730.0" y1="102.6" x2="698.2" y2="121.9" stroke="#303030" stroke-width="0.5"/>
  <line x1="625.6" y1="27.8" x2="624.7" y2="61.8" stroke="#303030" stroke-width="0.5"/>
  <line x1="582.3" y1="113.6" x2="583.0" y2="95.3" stroke="#303030" stroke-width="0.5"/>
  <line x1="698.2" y1="121.9" x2="642.2" y2="141.5" stroke="#303030" stroke-width="0.5"/>
  <line x1="628.5" y1="161.8" x2="655.9" y2="194.0" stroke="#303030" stroke-width="0.5"/>
  <line x1="655.9" y1="194.0" x2="667.4" y2="186.4" stroke="#303030" stroke-width="0.5"/>
  <line x1="645.4" y1="41.4" x2="624.7" y2="61.8" stroke="#303030" stroke-width="0.5"/>
  <line x1="667.4" y1="186.4" x2="642.2" y2="141.5" stroke="#303030" stroke-width="0.5"/>
  <line x1="565.3" y1="130.9" x2="583.0" y2="95.3" stroke="#303030" stroke-width="0.5"/>
  <circle cx="618.9" cy="136.6" r="2.5" fill="#383838"/>
  <circle cx="569.5" cy="68.6" r="2.3" fill="#383838"/>
  <circle cx="643.1" cy="138.7" r="1.7" fill="#383838"/>
  <circle cx="708.0" cy="103.5" r="1.4" fill="#383838"/>
  <circle cx="730.0" cy="102.6" r="1.8" fill="#383838"/>
  <circle cx="625.6" cy="27.8" r="1.2" fill="#383838"/>
  <circle cx="582.3" cy="113.6" r="2.0" fill="#383838"/>
  <circle cx="698.2" cy="121.9" r="1.5" fill="#383838"/>
  <circle cx="628.5" cy="161.8" r="1.6" fill="#383838"/>
  <circle cx="726.3" cy="42.5" r="1.3" fill="#383838"/>
  <circle cx="668.1" cy="58.1" r="2.6" fill="#484848"/>
  <circle cx="655.9" cy="194.0" r="2.2" fill="#383838"/>
  <circle cx="645.4" cy="41.4" r="1.8" fill="#484848"/>
  <circle cx="667.4" cy="186.4" r="1.2" fill="#383838"/>
  <circle cx="565.3" cy="130.9" r="2.8" fill="#383838"/>
  <circle cx="624.7" cy="61.8" r="1.1" fill="#383838"/>
  <circle cx="583.0" cy="95.3" r="1.6" fill="#383838"/>
  <circle cx="642.2" cy="141.5" r="1.7" fill="#383838"/>
  </g>

  <!-- top border -->
  <line x1="32" y1="0" x2="768" y2="0" stroke="#303030" stroke-width="1"/>

  <!-- header row -->
  <text x="36" y="40" fill="#e8e8e8" font-family="-apple-system, 'Segoe UI', sans-serif" font-size="16" font-weight="400" letter-spacing="-0.02em">ohm.</text>
  <text x="82" y="40" fill="#484848" font-family="-apple-system, 'Segoe UI', sans-serif" font-size="12" font-weight="300" letter-spacing="-0.01em">i built a neural net that watches me code</text>

  <!-- divider -->
  <line x1="36" y1="56" x2="764" y2="56" stroke="#303030" stroke-width="0.5"/>

  <!-- main content -->
  <text x="36" y="82" fill="#484848" font-family="-apple-system, 'Segoe UI', sans-serif" font-size="10" font-weight="300" letter-spacing="0.04em">currently building</text>
  <text x="36" y="102" fill="#c8c8c8" font-family="-apple-system, 'Segoe UI', sans-serif" font-size="13" font-weight="400" letter-spacing="-0.01em">ruasafterclass  ·  candid  ·  ohm-spotify</text>

  <!-- stats row -->
  <text x="36" y="134" fill="#aaa" font-family="-apple-system, 'Segoe UI', sans-serif" font-size="11" font-weight="300">7.4k nodes</text>
  <text x="120" y="134" fill="#383838" font-family="-apple-system, 'Segoe UI', sans-serif" font-size="11" font-weight="300">·</text>
  <text x="132" y="134" fill="#aaa" font-family="-apple-system, 'Segoe UI', sans-serif" font-size="11" font-weight="300">18.8k edges</text>
  <text x="230" y="134" fill="#383838" font-family="-apple-system, 'Segoe UI', sans-serif" font-size="11" font-weight="300">·</text>
  <text x="242" y="134" fill="#aaa" font-family="-apple-system, 'Segoe UI', sans-serif" font-size="11" font-weight="300">109 projects</text>
  <text x="330" y="134" fill="#383838" font-family="-apple-system, 'Segoe UI', sans-serif" font-size="11" font-weight="300">·</text>
  <text x="342" y="134" fill="#aaa" font-family="-apple-system, 'Segoe UI', sans-serif" font-size="11" font-weight="300">18 milestones</text>

  <!-- divider -->
  <line x1="36" y1="152" x2="764" y2="152" stroke="#303030" stroke-width="0.5"/>

  <!-- bottom row -->
  <text x="36" y="176" fill="#c8c8c8" font-family="-apple-system, 'Segoe UI', sans-serif" font-size="12" font-weight="300">1 day build streak</text>
  <text x="36" y="196" fill="#484848" font-family="-apple-system, 'Segoe UI', sans-serif" font-size="10" font-weight="300">shipping since mar 2026</text>

  <!-- sparkline: 7d activity -->
  
  <text x="728" y="176" fill="#383838" font-family="-apple-system, 'Segoe UI', sans-serif" font-size="9" font-weight="300" text-anchor="middle">7d</text>
  <rect x="708.0" y="196.4" width="4" height="7.6" rx="1" fill="#c8c8c8" opacity="0.41"/>
  <rect x="744.0" y="180.0" width="4" height="24.0" rx="1" fill="#c8c8c8" opacity="0.75"/>
  

  <!-- updated -->
  <text x="764" y="210" fill="#383838" font-family="-apple-system, 'Segoe UI', sans-serif" font-size="9" font-weight="300" text-anchor="end">may 27</text>

  </g>
</svg>