<svg xmlns="http://www.w3.org/2000/svg" width="800" height="220" viewBox="0 0 800 220">
  <defs>
    <clipPath id="card"><rect width="800" height="220" rx="4"/></clipPath>
  </defs>
  <g clip-path="url(#card)">
  <rect width="800" height="220" rx="4" fill="#262626"/>

  <!-- constellation background -->
  <g opacity="0.6">
  <line x1="639.2" y1="178.9" x2="600.0" y2="135.4" stroke="#303030" stroke-width="0.5"/>
  <line x1="639.2" y1="178.9" x2="630.5" y2="122.8" stroke="#303030" stroke-width="0.5"/>
  <line x1="649.2" y1="52.8" x2="604.4" y2="69.7" stroke="#303030" stroke-width="0.5"/>
  <line x1="649.2" y1="52.8" x2="665.5" y2="63.0" stroke="#303030" stroke-width="0.5"/>
  <line x1="649.2" y1="52.8" x2="683.5" y2="39.1" stroke="#303030" stroke-width="0.5"/>
  <line x1="600.0" y1="135.4" x2="635.8" y2="129.6" stroke="#303030" stroke-width="0.5"/>
  <line x1="666.5" y1="155.5" x2="630.5" y2="122.8" stroke="#303030" stroke-width="0.5"/>
  <line x1="666.5" y1="155.5" x2="707.1" y2="135.9" stroke="#303030" stroke-width="0.5"/>
  <line x1="666.5" y1="155.5" x2="697.4" y2="122.5" stroke="#303030" stroke-width="0.5"/>
  <line x1="709.5" y1="73.8" x2="697.2" y2="69.6" stroke="#303030" stroke-width="0.5"/>
  <line x1="709.5" y1="73.8" x2="705.6" y2="129.1" stroke="#303030" stroke-width="0.5"/>
  <line x1="709.5" y1="73.8" x2="665.5" y2="63.0" stroke="#303030" stroke-width="0.5"/>
  <line x1="709.5" y1="73.8" x2="718.2" y2="49.3" stroke="#303030" stroke-width="0.5"/>
  <line x1="709.5" y1="73.8" x2="697.4" y2="122.5" stroke="#303030" stroke-width="0.5"/>
  <line x1="709.5" y1="73.8" x2="683.5" y2="39.1" stroke="#303030" stroke-width="0.5"/>
  <line x1="697.2" y1="69.6" x2="665.5" y2="63.0" stroke="#303030" stroke-width="0.5"/>
  <line x1="697.2" y1="69.6" x2="718.2" y2="49.3" stroke="#303030" stroke-width="0.5"/>
  <line x1="697.2" y1="69.6" x2="707.1" y2="82.0" stroke="#303030" stroke-width="0.5"/>
  <line x1="697.2" y1="69.6" x2="697.6" y2="126.1" stroke="#303030" stroke-width="0.5"/>
  <line x1="630.5" y1="122.8" x2="635.8" y2="129.6" stroke="#303030" stroke-width="0.5"/>
  <line x1="705.6" y1="129.1" x2="707.1" y2="135.9" stroke="#303030" stroke-width="0.5"/>
  <line x1="705.6" y1="129.1" x2="707.1" y2="82.0" stroke="#303030" stroke-width="0.5"/>
  <line x1="705.6" y1="129.1" x2="697.6" y2="126.1" stroke="#303030" stroke-width="0.5"/>
  <line x1="665.5" y1="63.0" x2="718.2" y2="49.3" stroke="#303030" stroke-width="0.5"/>
  <line x1="665.5" y1="63.0" x2="707.1" y2="82.0" stroke="#303030" stroke-width="0.5"/>
  <line x1="665.5" y1="63.0" x2="683.5" y2="39.1" stroke="#303030" stroke-width="0.5"/>
  <line x1="718.2" y1="49.3" x2="707.1" y2="82.0" stroke="#303030" stroke-width="0.5"/>
  <line x1="707.1" y1="135.9" x2="697.4" y2="122.5" stroke="#303030" stroke-width="0.5"/>
  <line x1="707.1" y1="135.9" x2="707.1" y2="82.0" stroke="#303030" stroke-width="0.5"/>
  <line x1="707.1" y1="135.9" x2="697.6" y2="126.1" stroke="#303030" stroke-width="0.5"/>
  <line x1="697.4" y1="122.5" x2="697.6" y2="126.1" stroke="#303030" stroke-width="0.5"/>
  <line x1="707.1" y1="82.0" x2="683.5" y2="39.1" stroke="#303030" stroke-width="0.5"/>
  <line x1="707.1" y1="82.0" x2="697.6" y2="126.1" stroke="#303030" stroke-width="0.5"/>
  <circle cx="639.2" cy="178.9" r="2.5" fill="#383838"/>
  <circle cx="649.2" cy="52.8" r="2.1" fill="#383838"/>
  <circle cx="600.0" cy="135.4" r="1.2" fill="#383838"/>
  <circle cx="688.8" cy="194.5" r="2.2" fill="#383838"/>
  <circle cx="666.5" cy="155.5" r="1.5" fill="#383838"/>
  <circle cx="709.5" cy="73.8" r="1.6" fill="#484848"/>
  <circle cx="697.2" cy="69.6" r="1.7" fill="#383838"/>
  <circle cx="630.5" cy="122.8" r="1.2" fill="#383838"/>
  <circle cx="604.4" cy="69.7" r="1.7" fill="#383838"/>
  <circle cx="705.6" cy="129.1" r="1.3" fill="#383838"/>
  <circle cx="665.5" cy="63.0" r="2.4" fill="#484848"/>
  <circle cx="718.2" cy="49.3" r="2.7" fill="#383838"/>
  <circle cx="707.1" cy="135.9" r="2.3" fill="#383838"/>
  <circle cx="697.4" cy="122.5" r="1.7" fill="#484848"/>
  <circle cx="707.1" cy="82.0" r="2.2" fill="#383838"/>
  <circle cx="683.5" cy="39.1" r="2.4" fill="#383838"/>
  <circle cx="635.8" cy="129.6" r="1.6" fill="#383838"/>
  <circle cx="697.6" cy="126.1" r="1.2" fill="#383838"/>
  </g>

  <!-- top border -->
  <line x1="32" y1="0" x2="768" y2="0" stroke="#303030" stroke-width="1"/>

  <!-- header row -->
  <text x="36" y="40" fill="#e8e8e8" font-family="-apple-system, 'Segoe UI', sans-serif" font-size="16" font-weight="400" letter-spacing="-0.02em">ohm.</text>
  <text x="82" y="40" fill="#484848" font-family="-apple-system, 'Segoe UI', sans-serif" font-size="12" font-weight="300" letter-spacing="-0.01em">i built a neural net that watches me code</text>

  <!-- divider -->
  <line x1="36" y1="56" x2="764" y2="56" stroke="#303030" stroke-width="0.5"/>

  <!-- main content -->
  <text x="36" y="82" fill="#484848" font-family="-apple-system, 'Segoe UI', sans-serif" font-size="10" font-weight="300" letter-spacing="0.04em">currently building</text>
  <text x="36" y="102" fill="#c8c8c8" font-family="-apple-system, 'Segoe UI', sans-serif" font-size="13" font-weight="400" letter-spacing="-0.01em">ohm-spotify  ·  timini-print  ·  ohm-ctrl</text>

  <!-- stats row -->
  <text x="36" y="134" fill="#aaa" font-family="-apple-system, 'Segoe UI', sans-serif" font-size="11" font-weight="300">2.4k nodes</text>
  <text x="120" y="134" fill="#383838" font-family="-apple-system, 'Segoe UI', sans-serif" font-size="11" font-weight="300">·</text>
  <text x="132" y="134" fill="#aaa" font-family="-apple-system, 'Segoe UI', sans-serif" font-size="11" font-weight="300">140.4k edges</text>
  <text x="230" y="134" fill="#383838" font-family="-apple-system, 'Segoe UI', sans-serif" font-size="11" font-weight="300">·</text>
  <text x="242" y="134" fill="#aaa" font-family="-apple-system, 'Segoe UI', sans-serif" font-size="11" font-weight="300">48 projects</text>
  <text x="330" y="134" fill="#383838" font-family="-apple-system, 'Segoe UI', sans-serif" font-size="11" font-weight="300">·</text>
  <text x="342" y="134" fill="#aaa" font-family="-apple-system, 'Segoe UI', sans-serif" font-size="11" font-weight="300">18 milestones</text>

  <!-- divider -->
  <line x1="36" y1="152" x2="764" y2="152" stroke="#303030" stroke-width="0.5"/>

  <!-- bottom row -->
  <text x="36" y="176" fill="#c8c8c8" font-family="-apple-system, 'Segoe UI', sans-serif" font-size="12" font-weight="300">5 day build streak</text>
  <text x="36" y="196" fill="#484848" font-family="-apple-system, 'Segoe UI', sans-serif" font-size="10" font-weight="300">shipping since mar 2026</text>

  <!-- sparkline: 7d activity -->
  
  <text x="728" y="176" fill="#383838" font-family="-apple-system, 'Segoe UI', sans-serif" font-size="9" font-weight="300" text-anchor="middle">7d</text>
  <rect x="708.0" y="196.4" width="4" height="7.6" rx="1" fill="#c8c8c8" opacity="0.41"/>
  <rect x="744.0" y="180.0" width="4" height="24.0" rx="1" fill="#c8c8c8" opacity="0.75"/>
  

  <!-- updated -->
  <text x="764" y="210" fill="#383838" font-family="-apple-system, 'Segoe UI', sans-serif" font-size="9" font-weight="300" text-anchor="end">apr 5</text>

  </g>
</svg>