<svg xmlns="http://www.w3.org/2000/svg" width="800" height="220" viewBox="0 0 800 220">
  <defs>
    <clipPath id="card"><rect width="800" height="220" rx="4"/></clipPath>
  </defs>
  <g clip-path="url(#card)">
  <rect width="800" height="220" rx="4" fill="#262626"/>

  <!-- constellation background -->
  <g opacity="0.6">
  <line x1="589.8" y1="153.7" x2="626.7" y2="123.2" stroke="#303030" stroke-width="0.5"/>
  <line x1="589.8" y1="153.7" x2="619.9" y2="115.8" stroke="#303030" stroke-width="0.5"/>
  <line x1="589.8" y1="153.7" x2="626.5" y2="131.2" stroke="#303030" stroke-width="0.5"/>
  <line x1="661.8" y1="58.5" x2="692.1" y2="95.7" stroke="#303030" stroke-width="0.5"/>
  <line x1="661.8" y1="58.5" x2="702.8" y2="41.3" stroke="#303030" stroke-width="0.5"/>
  <line x1="661.8" y1="58.5" x2="663.9" y2="25.1" stroke="#303030" stroke-width="0.5"/>
  <line x1="661.8" y1="58.5" x2="636.8" y2="83.4" stroke="#303030" stroke-width="0.5"/>
  <line x1="661.8" y1="58.5" x2="704.9" y2="80.1" stroke="#303030" stroke-width="0.5"/>
  <line x1="636.3" y1="139.1" x2="635.0" y2="152.2" stroke="#303030" stroke-width="0.5"/>
  <line x1="636.3" y1="139.1" x2="619.9" y2="115.8" stroke="#303030" stroke-width="0.5"/>
  <line x1="636.3" y1="139.1" x2="626.5" y2="131.2" stroke="#303030" stroke-width="0.5"/>
  <line x1="635.0" y1="152.2" x2="626.7" y2="123.2" stroke="#303030" stroke-width="0.5"/>
  <line x1="635.0" y1="152.2" x2="619.9" y2="115.8" stroke="#303030" stroke-width="0.5"/>
  <line x1="635.0" y1="152.2" x2="626.5" y2="131.2" stroke="#303030" stroke-width="0.5"/>
  <line x1="692.1" y1="95.7" x2="692.8" y2="60.1" stroke="#303030" stroke-width="0.5"/>
  <line x1="692.1" y1="95.7" x2="702.8" y2="41.3" stroke="#303030" stroke-width="0.5"/>
  <line x1="692.1" y1="95.7" x2="725.1" y2="61.8" stroke="#303030" stroke-width="0.5"/>
  <line x1="692.1" y1="95.7" x2="705.9" y2="145.1" stroke="#303030" stroke-width="0.5"/>
  <line x1="692.1" y1="95.7" x2="636.8" y2="83.4" stroke="#303030" stroke-width="0.5"/>
  <line x1="692.1" y1="95.7" x2="704.9" y2="80.1" stroke="#303030" stroke-width="0.5"/>
  <line x1="692.8" y1="60.1" x2="725.1" y2="61.8" stroke="#303030" stroke-width="0.5"/>
  <line x1="692.8" y1="60.1" x2="663.9" y2="25.1" stroke="#303030" stroke-width="0.5"/>
  <line x1="728.5" y1="153.8" x2="705.9" y2="145.1" stroke="#303030" stroke-width="0.5"/>
  <line x1="702.8" y1="41.3" x2="704.9" y2="80.1" stroke="#303030" stroke-width="0.5"/>
  <line x1="626.7" y1="123.2" x2="619.9" y2="115.8" stroke="#303030" stroke-width="0.5"/>
  <line x1="626.7" y1="123.2" x2="626.5" y2="131.2" stroke="#303030" stroke-width="0.5"/>
  <line x1="725.1" y1="61.8" x2="704.9" y2="80.1" stroke="#303030" stroke-width="0.5"/>
  <line x1="619.9" y1="115.8" x2="636.8" y2="83.4" stroke="#303030" stroke-width="0.5"/>
  <circle cx="589.8" cy="153.7" r="2.4" fill="#484848"/>
  <circle cx="661.8" cy="58.5" r="2.5" fill="#383838"/>
  <circle cx="636.3" cy="139.1" r="1.7" fill="#484848"/>
  <circle cx="635.0" cy="152.2" r="1.1" fill="#383838"/>
  <circle cx="692.1" cy="95.7" r="2.7" fill="#383838"/>
  <circle cx="671.7" cy="201.3" r="2.4" fill="#484848"/>
  <circle cx="692.8" cy="60.1" r="1.8" fill="#484848"/>
  <circle cx="728.5" cy="153.8" r="2.1" fill="#383838"/>
  <circle cx="702.8" cy="41.3" r="2.7" fill="#383838"/>
  <circle cx="626.7" cy="123.2" r="1.0" fill="#383838"/>
  <circle cx="725.1" cy="61.8" r="1.0" fill="#383838"/>
  <circle cx="619.9" cy="115.8" r="1.4" fill="#383838"/>
  <circle cx="636.7" cy="182.8" r="1.1" fill="#383838"/>
  <circle cx="705.9" cy="145.1" r="1.4" fill="#383838"/>
  <circle cx="626.5" cy="131.2" r="1.8" fill="#383838"/>
  <circle cx="663.9" cy="25.1" r="2.0" fill="#383838"/>
  <circle cx="636.8" cy="83.4" r="1.8" fill="#383838"/>
  <circle cx="704.9" cy="80.1" r="1.1" fill="#383838"/>
  </g>

  <!-- top border -->
  <line x1="32" y1="0" x2="768" y2="0" stroke="#303030" stroke-width="1"/>

  <!-- header row -->
  <text x="36" y="40" fill="#e8e8e8" font-family="-apple-system, 'Segoe UI', sans-serif" font-size="16" font-weight="400" letter-spacing="-0.02em">ohm.</text>
  <text x="82" y="40" fill="#484848" font-family="-apple-system, 'Segoe UI', sans-serif" font-size="12" font-weight="300" letter-spacing="-0.01em">i built a neural net that watches me code</text>

  <!-- divider -->
  <line x1="36" y1="56" x2="764" y2="56" stroke="#303030" stroke-width="0.5"/>

  <!-- main content -->
  <text x="36" y="82" fill="#484848" font-family="-apple-system, 'Segoe UI', sans-serif" font-size="10" font-weight="300" letter-spacing="0.04em">currently building</text>
  <text x="36" y="102" fill="#c8c8c8" font-family="-apple-system, 'Segoe UI', sans-serif" font-size="13" font-weight="400" letter-spacing="-0.01em">sap  ·  sheets ai  ·  ohm-os</text>

  <!-- stats row -->
  <text x="36" y="134" fill="#aaa" font-family="-apple-system, 'Segoe UI', sans-serif" font-size="11" font-weight="300">682 nodes</text>
  <text x="120" y="134" fill="#383838" font-family="-apple-system, 'Segoe UI', sans-serif" font-size="11" font-weight="300">·</text>
  <text x="132" y="134" fill="#aaa" font-family="-apple-system, 'Segoe UI', sans-serif" font-size="11" font-weight="300">1.6k edges</text>
  <text x="230" y="134" fill="#383838" font-family="-apple-system, 'Segoe UI', sans-serif" font-size="11" font-weight="300">·</text>
  <text x="242" y="134" fill="#aaa" font-family="-apple-system, 'Segoe UI', sans-serif" font-size="11" font-weight="300">14 projects</text>
  <text x="330" y="134" fill="#383838" font-family="-apple-system, 'Segoe UI', sans-serif" font-size="11" font-weight="300">·</text>
  <text x="342" y="134" fill="#aaa" font-family="-apple-system, 'Segoe UI', sans-serif" font-size="11" font-weight="300">14 milestones</text>

  <!-- divider -->
  <line x1="36" y1="152" x2="764" y2="152" stroke="#303030" stroke-width="0.5"/>

  <!-- bottom row -->
  <text x="36" y="176" fill="#c8c8c8" font-family="-apple-system, 'Segoe UI', sans-serif" font-size="12" font-weight="300">3 day build streak</text>
  <text x="36" y="196" fill="#484848" font-family="-apple-system, 'Segoe UI', sans-serif" font-size="10" font-weight="300">shipping since mar 2026</text>

  <!-- sparkline: 7d activity -->
  
  <text x="728" y="176" fill="#383838" font-family="-apple-system, 'Segoe UI', sans-serif" font-size="9" font-weight="300" text-anchor="middle">7d</text>
  <rect x="708.0" y="196.4" width="4" height="7.6" rx="1" fill="#c8c8c8" opacity="0.41"/>
  <rect x="744.0" y="180.0" width="4" height="24.0" rx="1" fill="#c8c8c8" opacity="0.75"/>
  

  <!-- updated -->
  <text x="764" y="210" fill="#383838" font-family="-apple-system, 'Segoe UI', sans-serif" font-size="9" font-weight="300" text-anchor="end">mar 25</text>

  </g>
</svg>