<svg xmlns="http://www.w3.org/2000/svg" width="800" height="220" viewBox="0 0 800 220">
  <defs>
    <clipPath id="card"><rect width="800" height="220" rx="4"/></clipPath>
  </defs>
  <g clip-path="url(#card)">
  <rect width="800" height="220" rx="4" fill="#262626"/>

  <!-- constellation background -->
  <g opacity="0.6">
  <line x1="671.4" y1="62.3" x2="655.7" y2="36.9" stroke="#303030" stroke-width="0.5"/>
  <line x1="671.4" y1="62.3" x2="638.5" y2="79.7" stroke="#303030" stroke-width="0.5"/>
  <line x1="671.4" y1="62.3" x2="649.1" y2="77.7" stroke="#303030" stroke-width="0.5"/>
  <line x1="671.4" y1="62.3" x2="687.2" y2="95.8" stroke="#303030" stroke-width="0.5"/>
  <line x1="671.4" y1="62.3" x2="652.7" y2="69.1" stroke="#303030" stroke-width="0.5"/>
  <line x1="671.4" y1="62.3" x2="694.0" y2="98.3" stroke="#303030" stroke-width="0.5"/>
  <line x1="655.7" y1="36.9" x2="611.6" y2="75.0" stroke="#303030" stroke-width="0.5"/>
  <line x1="655.7" y1="36.9" x2="652.7" y2="69.1" stroke="#303030" stroke-width="0.5"/>
  <line x1="611.6" y1="75.0" x2="638.5" y2="79.7" stroke="#303030" stroke-width="0.5"/>
  <line x1="611.6" y1="75.0" x2="575.5" y2="61.1" stroke="#303030" stroke-width="0.5"/>
  <line x1="611.6" y1="75.0" x2="652.7" y2="69.1" stroke="#303030" stroke-width="0.5"/>
  <line x1="638.5" y1="79.7" x2="649.1" y2="77.7" stroke="#303030" stroke-width="0.5"/>
  <line x1="638.5" y1="79.7" x2="687.2" y2="95.8" stroke="#303030" stroke-width="0.5"/>
  <line x1="638.5" y1="79.7" x2="652.7" y2="69.1" stroke="#303030" stroke-width="0.5"/>
  <line x1="638.5" y1="79.7" x2="585.2" y2="72.9" stroke="#303030" stroke-width="0.5"/>
  <line x1="638.5" y1="79.7" x2="694.0" y2="98.3" stroke="#303030" stroke-width="0.5"/>
  <line x1="649.1" y1="77.7" x2="687.2" y2="95.8" stroke="#303030" stroke-width="0.5"/>
  <line x1="649.1" y1="77.7" x2="652.7" y2="69.1" stroke="#303030" stroke-width="0.5"/>
  <line x1="687.2" y1="95.8" x2="652.7" y2="69.1" stroke="#303030" stroke-width="0.5"/>
  <line x1="687.2" y1="95.8" x2="694.0" y2="98.3" stroke="#303030" stroke-width="0.5"/>
  <line x1="687.2" y1="95.8" x2="692.1" y2="154.8" stroke="#303030" stroke-width="0.5"/>
  <line x1="687.2" y1="95.8" x2="729.1" y2="128.2" stroke="#303030" stroke-width="0.5"/>
  <line x1="687.2" y1="95.8" x2="691.7" y2="133.3" stroke="#303030" stroke-width="0.5"/>
  <line x1="580.0" y1="153.8" x2="579.4" y2="126.2" stroke="#303030" stroke-width="0.5"/>
  <line x1="580.0" y1="153.8" x2="610.7" y2="145.9" stroke="#303030" stroke-width="0.5"/>
  <line x1="579.4" y1="126.2" x2="585.2" y2="72.9" stroke="#303030" stroke-width="0.5"/>
  <line x1="754.1" y1="111.9" x2="729.1" y2="128.2" stroke="#303030" stroke-width="0.5"/>
  <line x1="652.7" y1="69.1" x2="694.0" y2="98.3" stroke="#303030" stroke-width="0.5"/>
  <line x1="705.2" y1="120.3" x2="694.0" y2="98.3" stroke="#303030" stroke-width="0.5"/>
  <line x1="705.2" y1="120.3" x2="691.7" y2="133.3" stroke="#303030" stroke-width="0.5"/>
  <line x1="694.0" y1="98.3" x2="692.1" y2="154.8" stroke="#303030" stroke-width="0.5"/>
  <line x1="694.0" y1="98.3" x2="729.1" y2="128.2" stroke="#303030" stroke-width="0.5"/>
  <line x1="694.0" y1="98.3" x2="691.7" y2="133.3" stroke="#303030" stroke-width="0.5"/>
  <line x1="692.1" y1="154.8" x2="691.7" y2="133.3" stroke="#303030" stroke-width="0.5"/>
  <line x1="729.1" y1="128.2" x2="691.7" y2="133.3" stroke="#303030" stroke-width="0.5"/>
  <circle cx="671.4" cy="62.3" r="1.4" fill="#383838"/>
  <circle cx="655.7" cy="36.9" r="2.0" fill="#383838"/>
  <circle cx="611.6" cy="75.0" r="2.3" fill="#484848"/>
  <circle cx="638.5" cy="79.7" r="1.5" fill="#383838"/>
  <circle cx="649.1" cy="77.7" r="2.2" fill="#383838"/>
  <circle cx="575.5" cy="61.1" r="1.3" fill="#383838"/>
  <circle cx="687.2" cy="95.8" r="1.5" fill="#383838"/>
  <circle cx="580.0" cy="153.8" r="1.1" fill="#383838"/>
  <circle cx="579.4" cy="126.2" r="1.0" fill="#383838"/>
  <circle cx="754.1" cy="111.9" r="1.1" fill="#383838"/>
  <circle cx="610.7" cy="145.9" r="1.1" fill="#383838"/>
  <circle cx="652.7" cy="69.1" r="1.1" fill="#383838"/>
  <circle cx="705.2" cy="120.3" r="2.7" fill="#383838"/>
  <circle cx="585.2" cy="72.9" r="2.5" fill="#484848"/>
  <circle cx="694.0" cy="98.3" r="2.8" fill="#484848"/>
  <circle cx="692.1" cy="154.8" r="1.2" fill="#383838"/>
  <circle cx="729.1" cy="128.2" r="1.7" fill="#484848"/>
  <circle cx="691.7" cy="133.3" r="2.6" fill="#484848"/>
  </g>

  <!-- top border -->
  <line x1="32" y1="0" x2="768" y2="0" stroke="#303030" stroke-width="1"/>

  <!-- header row -->
  <text x="36" y="40" fill="#e8e8e8" font-family="-apple-system, 'Segoe UI', sans-serif" font-size="16" font-weight="400" letter-spacing="-0.02em">ohm.</text>
  <text x="82" y="40" fill="#484848" font-family="-apple-system, 'Segoe UI', sans-serif" font-size="12" font-weight="300" letter-spacing="-0.01em">i built a neural net that watches me code</text>

  <!-- divider -->
  <line x1="36" y1="56" x2="764" y2="56" stroke="#303030" stroke-width="0.5"/>

  <!-- main content -->
  <text x="36" y="82" fill="#484848" font-family="-apple-system, 'Segoe UI', sans-serif" font-size="10" font-weight="300" letter-spacing="0.04em">currently building</text>
  <text x="36" y="102" fill="#c8c8c8" font-family="-apple-system, 'Segoe UI', sans-serif" font-size="13" font-weight="400" letter-spacing="-0.01em">candid  ·  ruasafterclass  ·  ohm-spotify</text>

  <!-- stats row -->
  <text x="36" y="134" fill="#aaa" font-family="-apple-system, 'Segoe UI', sans-serif" font-size="11" font-weight="300">6.0k nodes</text>
  <text x="120" y="134" fill="#383838" font-family="-apple-system, 'Segoe UI', sans-serif" font-size="11" font-weight="300">·</text>
  <text x="132" y="134" fill="#aaa" font-family="-apple-system, 'Segoe UI', sans-serif" font-size="11" font-weight="300">143.0k edges</text>
  <text x="230" y="134" fill="#383838" font-family="-apple-system, 'Segoe UI', sans-serif" font-size="11" font-weight="300">·</text>
  <text x="242" y="134" fill="#aaa" font-family="-apple-system, 'Segoe UI', sans-serif" font-size="11" font-weight="300">81 projects</text>
  <text x="330" y="134" fill="#383838" font-family="-apple-system, 'Segoe UI', sans-serif" font-size="11" font-weight="300">·</text>
  <text x="342" y="134" fill="#aaa" font-family="-apple-system, 'Segoe UI', sans-serif" font-size="11" font-weight="300">18 milestones</text>

  <!-- divider -->
  <line x1="36" y1="152" x2="764" y2="152" stroke="#303030" stroke-width="0.5"/>

  <!-- bottom row -->
  <text x="36" y="176" fill="#c8c8c8" font-family="-apple-system, 'Segoe UI', sans-serif" font-size="12" font-weight="300">5 day build streak</text>
  <text x="36" y="196" fill="#484848" font-family="-apple-system, 'Segoe UI', sans-serif" font-size="10" font-weight="300">shipping since mar 2026</text>

  <!-- sparkline: 7d activity -->
  
  <text x="728" y="176" fill="#383838" font-family="-apple-system, 'Segoe UI', sans-serif" font-size="9" font-weight="300" text-anchor="middle">7d</text>
  <rect x="708.0" y="196.4" width="4" height="7.6" rx="1" fill="#c8c8c8" opacity="0.41"/>
  <rect x="744.0" y="180.0" width="4" height="24.0" rx="1" fill="#c8c8c8" opacity="0.75"/>
  

  <!-- updated -->
  <text x="764" y="210" fill="#383838" font-family="-apple-system, 'Segoe UI', sans-serif" font-size="9" font-weight="300" text-anchor="end">may 4</text>

  </g>
</svg>