<svg xmlns="http://www.w3.org/2000/svg" width="800" height="220" viewBox="0 0 800 220">
  <defs>
    <clipPath id="card"><rect width="800" height="220" rx="4"/></clipPath>
  </defs>
  <g clip-path="url(#card)">
  <rect width="800" height="220" rx="4" fill="#262626"/>

  <!-- constellation background -->
  <g opacity="0.6">
  <line x1="617.2" y1="77.6" x2="629.6" y2="130.9" stroke="#303030" stroke-width="0.5"/>
  <line x1="617.2" y1="77.6" x2="649.5" y2="75.4" stroke="#303030" stroke-width="0.5"/>
  <line x1="617.2" y1="77.6" x2="598.1" y2="103.8" stroke="#303030" stroke-width="0.5"/>
  <line x1="617.2" y1="77.6" x2="625.5" y2="84.2" stroke="#303030" stroke-width="0.5"/>
  <line x1="617.2" y1="77.6" x2="584.0" y2="76.9" stroke="#303030" stroke-width="0.5"/>
  <line x1="617.2" y1="77.6" x2="625.3" y2="26.2" stroke="#303030" stroke-width="0.5"/>
  <line x1="629.6" y1="130.9" x2="582.3" y2="139.0" stroke="#303030" stroke-width="0.5"/>
  <line x1="629.6" y1="130.9" x2="641.0" y2="142.8" stroke="#303030" stroke-width="0.5"/>
  <line x1="629.6" y1="130.9" x2="598.1" y2="103.8" stroke="#303030" stroke-width="0.5"/>
  <line x1="629.6" y1="130.9" x2="625.5" y2="84.2" stroke="#303030" stroke-width="0.5"/>
  <line x1="736.7" y1="144.3" x2="714.5" y2="140.3" stroke="#303030" stroke-width="0.5"/>
  <line x1="582.3" y1="139.0" x2="594.7" y2="183.2" stroke="#303030" stroke-width="0.5"/>
  <line x1="582.3" y1="139.0" x2="641.0" y2="142.8" stroke="#303030" stroke-width="0.5"/>
  <line x1="582.3" y1="139.0" x2="598.1" y2="103.8" stroke="#303030" stroke-width="0.5"/>
  <line x1="649.5" y1="75.4" x2="625.5" y2="84.2" stroke="#303030" stroke-width="0.5"/>
  <line x1="649.5" y1="75.4" x2="704.4" y2="56.7" stroke="#303030" stroke-width="0.5"/>
  <line x1="649.5" y1="75.4" x2="625.3" y2="26.2" stroke="#303030" stroke-width="0.5"/>
  <line x1="594.7" y1="183.2" x2="632.6" y2="164.3" stroke="#303030" stroke-width="0.5"/>
  <line x1="594.7" y1="183.2" x2="635.4" y2="152.5" stroke="#303030" stroke-width="0.5"/>
  <line x1="641.0" y1="142.8" x2="598.1" y2="103.8" stroke="#303030" stroke-width="0.5"/>
  <line x1="641.0" y1="142.8" x2="632.6" y2="164.3" stroke="#303030" stroke-width="0.5"/>
  <line x1="598.1" y1="103.8" x2="625.5" y2="84.2" stroke="#303030" stroke-width="0.5"/>
  <line x1="598.1" y1="103.8" x2="584.0" y2="76.9" stroke="#303030" stroke-width="0.5"/>
  <line x1="625.5" y1="84.2" x2="625.3" y2="26.2" stroke="#303030" stroke-width="0.5"/>
  <line x1="632.6" y1="164.3" x2="670.4" y2="192.5" stroke="#303030" stroke-width="0.5"/>
  <line x1="632.6" y1="164.3" x2="635.4" y2="152.5" stroke="#303030" stroke-width="0.5"/>
  <line x1="670.4" y1="192.5" x2="635.4" y2="152.5" stroke="#303030" stroke-width="0.5"/>
  <line x1="724.0" y1="59.5" x2="755.3" y2="83.8" stroke="#303030" stroke-width="0.5"/>
  <circle cx="617.2" cy="77.6" r="2.2" fill="#383838"/>
  <circle cx="629.6" cy="130.9" r="2.8" fill="#383838"/>
  <circle cx="736.7" cy="144.3" r="2.2" fill="#383838"/>
  <circle cx="582.3" cy="139.0" r="2.0" fill="#383838"/>
  <circle cx="649.5" cy="75.4" r="2.4" fill="#383838"/>
  <circle cx="594.7" cy="183.2" r="1.9" fill="#383838"/>
  <circle cx="641.0" cy="142.8" r="2.0" fill="#484848"/>
  <circle cx="598.1" cy="103.8" r="2.3" fill="#383838"/>
  <circle cx="625.5" cy="84.2" r="1.8" fill="#383838"/>
  <circle cx="632.6" cy="164.3" r="1.5" fill="#383838"/>
  <circle cx="670.4" cy="192.5" r="1.1" fill="#484848"/>
  <circle cx="584.0" cy="76.9" r="1.8" fill="#383838"/>
  <circle cx="635.4" cy="152.5" r="1.3" fill="#383838"/>
  <circle cx="724.0" cy="59.5" r="1.8" fill="#383838"/>
  <circle cx="755.3" cy="83.8" r="1.3" fill="#484848"/>
  <circle cx="704.4" cy="56.7" r="1.2" fill="#484848"/>
  <circle cx="714.5" cy="140.3" r="2.4" fill="#383838"/>
  <circle cx="625.3" cy="26.2" r="2.7" fill="#383838"/>
  </g>

  <!-- top border -->
  <line x1="32" y1="0" x2="768" y2="0" stroke="#303030" stroke-width="1"/>

  <!-- header row -->
  <text x="36" y="40" fill="#e8e8e8" font-family="-apple-system, 'Segoe UI', sans-serif" font-size="16" font-weight="400" letter-spacing="-0.02em">ohm.</text>
  <text x="82" y="40" fill="#484848" font-family="-apple-system, 'Segoe UI', sans-serif" font-size="12" font-weight="300" letter-spacing="-0.01em">i built a neural net that watches me code</text>

  <!-- divider -->
  <line x1="36" y1="56" x2="764" y2="56" stroke="#303030" stroke-width="0.5"/>

  <!-- main content -->
  <text x="36" y="82" fill="#484848" font-family="-apple-system, 'Segoe UI', sans-serif" font-size="10" font-weight="300" letter-spacing="0.04em">currently building</text>
  <text x="36" y="102" fill="#c8c8c8" font-family="-apple-system, 'Segoe UI', sans-serif" font-size="13" font-weight="400" letter-spacing="-0.01em">timini-print  ·  instagram cli  ·  ohm-ctrl</text>

  <!-- stats row -->
  <text x="36" y="134" fill="#aaa" font-family="-apple-system, 'Segoe UI', sans-serif" font-size="11" font-weight="300">1.8k nodes</text>
  <text x="120" y="134" fill="#383838" font-family="-apple-system, 'Segoe UI', sans-serif" font-size="11" font-weight="300">·</text>
  <text x="132" y="134" fill="#aaa" font-family="-apple-system, 'Segoe UI', sans-serif" font-size="11" font-weight="300">12.6k edges</text>
  <text x="230" y="134" fill="#383838" font-family="-apple-system, 'Segoe UI', sans-serif" font-size="11" font-weight="300">·</text>
  <text x="242" y="134" fill="#aaa" font-family="-apple-system, 'Segoe UI', sans-serif" font-size="11" font-weight="300">44 projects</text>
  <text x="330" y="134" fill="#383838" font-family="-apple-system, 'Segoe UI', sans-serif" font-size="11" font-weight="300">·</text>
  <text x="342" y="134" fill="#aaa" font-family="-apple-system, 'Segoe UI', sans-serif" font-size="11" font-weight="300">18 milestones</text>

  <!-- divider -->
  <line x1="36" y1="152" x2="764" y2="152" stroke="#303030" stroke-width="0.5"/>

  <!-- bottom row -->
  <text x="36" y="176" fill="#c8c8c8" font-family="-apple-system, 'Segoe UI', sans-serif" font-size="12" font-weight="300">3 day build streak</text>
  <text x="36" y="196" fill="#484848" font-family="-apple-system, 'Segoe UI', sans-serif" font-size="10" font-weight="300">shipping since mar 2026</text>

  <!-- sparkline: 7d activity -->
  
  <text x="728" y="176" fill="#383838" font-family="-apple-system, 'Segoe UI', sans-serif" font-size="9" font-weight="300" text-anchor="middle">7d</text>
  <rect x="708.0" y="196.4" width="4" height="7.6" rx="1" fill="#c8c8c8" opacity="0.41"/>
  <rect x="744.0" y="180.0" width="4" height="24.0" rx="1" fill="#c8c8c8" opacity="0.75"/>
  

  <!-- updated -->
  <text x="764" y="210" fill="#383838" font-family="-apple-system, 'Segoe UI', sans-serif" font-size="9" font-weight="300" text-anchor="end">apr 4</text>

  </g>
</svg>