<svg xmlns="http://www.w3.org/2000/svg" width="800" height="220" viewBox="0 0 800 220">
  <defs>
    <clipPath id="card"><rect width="800" height="220" rx="4"/></clipPath>
  </defs>
  <g clip-path="url(#card)">
  <rect width="800" height="220" rx="4" fill="#262626"/>

  <!-- constellation background -->
  <g opacity="0.6">
  <line x1="614.0" y1="83.3" x2="669.5" y2="75.0" stroke="#303030" stroke-width="0.5"/>
  <line x1="614.0" y1="83.3" x2="613.4" y2="78.3" stroke="#303030" stroke-width="0.5"/>
  <line x1="614.0" y1="83.3" x2="632.2" y2="72.5" stroke="#303030" stroke-width="0.5"/>
  <line x1="614.0" y1="83.3" x2="672.8" y2="82.1" stroke="#303030" stroke-width="0.5"/>
  <line x1="614.0" y1="83.3" x2="595.5" y2="77.7" stroke="#303030" stroke-width="0.5"/>
  <line x1="669.5" y1="75.0" x2="613.4" y2="78.3" stroke="#303030" stroke-width="0.5"/>
  <line x1="669.5" y1="75.0" x2="693.4" y2="78.6" stroke="#303030" stroke-width="0.5"/>
  <line x1="669.5" y1="75.0" x2="714.4" y2="94.1" stroke="#303030" stroke-width="0.5"/>
  <line x1="636.6" y1="178.0" x2="617.4" y2="151.2" stroke="#303030" stroke-width="0.5"/>
  <line x1="703.7" y1="146.3" x2="736.9" y2="98.2" stroke="#303030" stroke-width="0.5"/>
  <line x1="613.4" y1="78.3" x2="672.8" y2="82.1" stroke="#303030" stroke-width="0.5"/>
  <line x1="613.4" y1="78.3" x2="595.5" y2="77.7" stroke="#303030" stroke-width="0.5"/>
  <line x1="712.8" y1="42.3" x2="697.2" y2="94.7" stroke="#303030" stroke-width="0.5"/>
  <line x1="632.2" y1="72.5" x2="672.8" y2="82.1" stroke="#303030" stroke-width="0.5"/>
  <line x1="697.2" y1="94.7" x2="693.4" y2="78.6" stroke="#303030" stroke-width="0.5"/>
  <line x1="697.2" y1="94.7" x2="714.4" y2="94.1" stroke="#303030" stroke-width="0.5"/>
  <line x1="693.4" y1="78.6" x2="725.6" y2="89.4" stroke="#303030" stroke-width="0.5"/>
  <line x1="693.4" y1="78.6" x2="736.9" y2="98.2" stroke="#303030" stroke-width="0.5"/>
  <line x1="672.8" y1="82.1" x2="725.6" y2="89.4" stroke="#303030" stroke-width="0.5"/>
  <line x1="725.6" y1="89.4" x2="714.4" y2="94.1" stroke="#303030" stroke-width="0.5"/>
  <line x1="736.9" y1="98.2" x2="714.4" y2="94.1" stroke="#303030" stroke-width="0.5"/>
  <circle cx="614.0" cy="83.3" r="1.7" fill="#383838"/>
  <circle cx="669.5" cy="75.0" r="1.9" fill="#383838"/>
  <circle cx="636.6" cy="178.0" r="2.4" fill="#383838"/>
  <circle cx="703.7" cy="146.3" r="2.1" fill="#484848"/>
  <circle cx="613.4" cy="78.3" r="1.5" fill="#383838"/>
  <circle cx="712.8" cy="42.3" r="1.6" fill="#484848"/>
  <circle cx="632.2" cy="72.5" r="2.2" fill="#383838"/>
  <circle cx="673.5" cy="178.9" r="1.2" fill="#383838"/>
  <circle cx="697.2" cy="94.7" r="1.1" fill="#383838"/>
  <circle cx="693.4" cy="78.6" r="1.2" fill="#484848"/>
  <circle cx="617.4" cy="151.2" r="2.1" fill="#383838"/>
  <circle cx="672.8" cy="82.1" r="1.4" fill="#383838"/>
  <circle cx="741.0" cy="168.5" r="2.3" fill="#383838"/>
  <circle cx="595.5" cy="77.7" r="2.3" fill="#383838"/>
  <circle cx="725.6" cy="89.4" r="1.1" fill="#383838"/>
  <circle cx="736.9" cy="98.2" r="1.1" fill="#383838"/>
  <circle cx="714.4" cy="94.1" r="1.8" fill="#484848"/>
  <circle cx="637.5" cy="189.5" r="1.2" fill="#383838"/>
  </g>

  <!-- top border -->
  <line x1="32" y1="0" x2="768" y2="0" stroke="#303030" stroke-width="1"/>

  <!-- header row -->
  <text x="36" y="40" fill="#e8e8e8" font-family="-apple-system, 'Segoe UI', sans-serif" font-size="16" font-weight="400" letter-spacing="-0.02em">ohm.</text>
  <text x="82" y="40" fill="#484848" font-family="-apple-system, 'Segoe UI', sans-serif" font-size="12" font-weight="300" letter-spacing="-0.01em">i built a neural net that watches me code</text>

  <!-- divider -->
  <line x1="36" y1="56" x2="764" y2="56" stroke="#303030" stroke-width="0.5"/>

  <!-- main content -->
  <text x="36" y="82" fill="#484848" font-family="-apple-system, 'Segoe UI', sans-serif" font-size="10" font-weight="300" letter-spacing="0.04em">currently building</text>
  <text x="36" y="102" fill="#c8c8c8" font-family="-apple-system, 'Segoe UI', sans-serif" font-size="13" font-weight="400" letter-spacing="-0.01em">candid  ·  ohm-spotify  ·  timini-print</text>

  <!-- stats row -->
  <text x="36" y="134" fill="#aaa" font-family="-apple-system, 'Segoe UI', sans-serif" font-size="11" font-weight="300">3.2k nodes</text>
  <text x="120" y="134" fill="#383838" font-family="-apple-system, 'Segoe UI', sans-serif" font-size="11" font-weight="300">·</text>
  <text x="132" y="134" fill="#aaa" font-family="-apple-system, 'Segoe UI', sans-serif" font-size="11" font-weight="300">122.7k edges</text>
  <text x="230" y="134" fill="#383838" font-family="-apple-system, 'Segoe UI', sans-serif" font-size="11" font-weight="300">·</text>
  <text x="242" y="134" fill="#aaa" font-family="-apple-system, 'Segoe UI', sans-serif" font-size="11" font-weight="300">53 projects</text>
  <text x="330" y="134" fill="#383838" font-family="-apple-system, 'Segoe UI', sans-serif" font-size="11" font-weight="300">·</text>
  <text x="342" y="134" fill="#aaa" font-family="-apple-system, 'Segoe UI', sans-serif" font-size="11" font-weight="300">18 milestones</text>

  <!-- divider -->
  <line x1="36" y1="152" x2="764" y2="152" stroke="#303030" stroke-width="0.5"/>

  <!-- bottom row -->
  <text x="36" y="176" fill="#c8c8c8" font-family="-apple-system, 'Segoe UI', sans-serif" font-size="12" font-weight="300">6 day build streak</text>
  <text x="36" y="196" fill="#484848" font-family="-apple-system, 'Segoe UI', sans-serif" font-size="10" font-weight="300">shipping since mar 2026</text>

  <!-- sparkline: 7d activity -->
  
  <text x="728" y="176" fill="#383838" font-family="-apple-system, 'Segoe UI', sans-serif" font-size="9" font-weight="300" text-anchor="middle">7d</text>
  <rect x="708.0" y="196.4" width="4" height="7.6" rx="1" fill="#c8c8c8" opacity="0.41"/>
  <rect x="744.0" y="180.0" width="4" height="24.0" rx="1" fill="#c8c8c8" opacity="0.75"/>
  

  <!-- updated -->
  <text x="764" y="210" fill="#383838" font-family="-apple-system, 'Segoe UI', sans-serif" font-size="9" font-weight="300" text-anchor="end">apr 7</text>

  </g>
</svg>