<svg xmlns="http://www.w3.org/2000/svg" width="800" height="220" viewBox="0 0 800 220">
  <defs>
    <clipPath id="card"><rect width="800" height="220" rx="4"/></clipPath>
  </defs>
  <g clip-path="url(#card)">
  <rect width="800" height="220" rx="4" fill="#262626"/>

  <!-- constellation background -->
  <g opacity="0.6">
  <line x1="615.5" y1="71.7" x2="625.7" y2="115.6" stroke="#303030" stroke-width="0.5"/>
  <line x1="615.5" y1="71.7" x2="605.9" y2="89.0" stroke="#303030" stroke-width="0.5"/>
  <line x1="615.5" y1="71.7" x2="596.6" y2="45.3" stroke="#303030" stroke-width="0.5"/>
  <line x1="683.3" y1="160.0" x2="637.0" y2="135.6" stroke="#303030" stroke-width="0.5"/>
  <line x1="645.1" y1="180.2" x2="668.5" y2="150.7" stroke="#303030" stroke-width="0.5"/>
  <line x1="645.1" y1="180.2" x2="601.4" y2="175.3" stroke="#303030" stroke-width="0.5"/>
  <line x1="645.1" y1="180.2" x2="620.5" y2="153.0" stroke="#303030" stroke-width="0.5"/>
  <line x1="645.1" y1="180.2" x2="605.3" y2="178.4" stroke="#303030" stroke-width="0.5"/>
  <line x1="668.5" y1="150.7" x2="625.7" y2="115.6" stroke="#303030" stroke-width="0.5"/>
  <line x1="668.5" y1="150.7" x2="673.2" y2="174.6" stroke="#303030" stroke-width="0.5"/>
  <line x1="668.5" y1="150.7" x2="620.5" y2="153.0" stroke="#303030" stroke-width="0.5"/>
  <line x1="625.7" y1="115.6" x2="620.5" y2="153.0" stroke="#303030" stroke-width="0.5"/>
  <line x1="625.7" y1="115.6" x2="637.0" y2="135.6" stroke="#303030" stroke-width="0.5"/>
  <line x1="601.4" y1="175.3" x2="620.5" y2="153.0" stroke="#303030" stroke-width="0.5"/>
  <line x1="601.4" y1="175.3" x2="637.0" y2="135.6" stroke="#303030" stroke-width="0.5"/>
  <line x1="601.4" y1="175.3" x2="605.3" y2="178.4" stroke="#303030" stroke-width="0.5"/>
  <line x1="673.2" y1="174.6" x2="620.5" y2="153.0" stroke="#303030" stroke-width="0.5"/>
  <line x1="605.9" y1="89.0" x2="637.0" y2="135.6" stroke="#303030" stroke-width="0.5"/>
  <line x1="620.5" y1="153.0" x2="646.7" y2="159.3" stroke="#303030" stroke-width="0.5"/>
  <line x1="637.0" y1="135.6" x2="605.3" y2="178.4" stroke="#303030" stroke-width="0.5"/>
  <line x1="605.3" y1="178.4" x2="646.7" y2="159.3" stroke="#303030" stroke-width="0.5"/>
  <line x1="691.6" y1="95.0" x2="674.4" y2="78.7" stroke="#303030" stroke-width="0.5"/>
  <circle cx="735.1" cy="51.2" r="1.3" fill="#484848"/>
  <circle cx="615.5" cy="71.7" r="1.3" fill="#484848"/>
  <circle cx="683.3" cy="160.0" r="2.2" fill="#383838"/>
  <circle cx="645.1" cy="180.2" r="2.7" fill="#383838"/>
  <circle cx="744.8" cy="154.6" r="2.1" fill="#383838"/>
  <circle cx="668.5" cy="150.7" r="2.1" fill="#383838"/>
  <circle cx="625.7" cy="115.6" r="1.3" fill="#484848"/>
  <circle cx="601.4" cy="175.3" r="2.8" fill="#383838"/>
  <circle cx="673.2" cy="174.6" r="1.4" fill="#383838"/>
  <circle cx="605.9" cy="89.0" r="2.0" fill="#383838"/>
  <circle cx="620.5" cy="153.0" r="1.8" fill="#383838"/>
  <circle cx="596.6" cy="45.3" r="2.6" fill="#383838"/>
  <circle cx="637.0" cy="135.6" r="1.2" fill="#383838"/>
  <circle cx="605.3" cy="178.4" r="1.2" fill="#484848"/>
  <circle cx="597.9" cy="86.2" r="2.5" fill="#383838"/>
  <circle cx="646.7" cy="159.3" r="1.2" fill="#383838"/>
  <circle cx="691.6" cy="95.0" r="2.6" fill="#484848"/>
  <circle cx="674.4" cy="78.7" r="2.4" fill="#484848"/>
  </g>

  <!-- top border -->
  <line x1="32" y1="0" x2="768" y2="0" stroke="#303030" stroke-width="1"/>

  <!-- header row -->
  <text x="36" y="40" fill="#e8e8e8" font-family="-apple-system, 'Segoe UI', sans-serif" font-size="16" font-weight="400" letter-spacing="-0.02em">ohm.</text>
  <text x="82" y="40" fill="#484848" font-family="-apple-system, 'Segoe UI', sans-serif" font-size="12" font-weight="300" letter-spacing="-0.01em">i built a neural net that watches me code</text>

  <!-- divider -->
  <line x1="36" y1="56" x2="764" y2="56" stroke="#303030" stroke-width="0.5"/>

  <!-- main content -->
  <text x="36" y="82" fill="#484848" font-family="-apple-system, 'Segoe UI', sans-serif" font-size="10" font-weight="300" letter-spacing="0.04em">currently building</text>
  <text x="36" y="102" fill="#c8c8c8" font-family="-apple-system, 'Segoe UI', sans-serif" font-size="13" font-weight="400" letter-spacing="-0.01em">ruasafterclass  ·  candid  ·  ohm-spotify</text>

  <!-- stats row -->
  <text x="36" y="134" fill="#aaa" font-family="-apple-system, 'Segoe UI', sans-serif" font-size="11" font-weight="300">7.3k nodes</text>
  <text x="120" y="134" fill="#383838" font-family="-apple-system, 'Segoe UI', sans-serif" font-size="11" font-weight="300">·</text>
  <text x="132" y="134" fill="#aaa" font-family="-apple-system, 'Segoe UI', sans-serif" font-size="11" font-weight="300">18.4k edges</text>
  <text x="230" y="134" fill="#383838" font-family="-apple-system, 'Segoe UI', sans-serif" font-size="11" font-weight="300">·</text>
  <text x="242" y="134" fill="#aaa" font-family="-apple-system, 'Segoe UI', sans-serif" font-size="11" font-weight="300">108 projects</text>
  <text x="330" y="134" fill="#383838" font-family="-apple-system, 'Segoe UI', sans-serif" font-size="11" font-weight="300">·</text>
  <text x="342" y="134" fill="#aaa" font-family="-apple-system, 'Segoe UI', sans-serif" font-size="11" font-weight="300">18 milestones</text>

  <!-- divider -->
  <line x1="36" y1="152" x2="764" y2="152" stroke="#303030" stroke-width="0.5"/>

  <!-- bottom row -->
  <text x="36" y="176" fill="#c8c8c8" font-family="-apple-system, 'Segoe UI', sans-serif" font-size="12" font-weight="300">1 day build streak</text>
  <text x="36" y="196" fill="#484848" font-family="-apple-system, 'Segoe UI', sans-serif" font-size="10" font-weight="300">shipping since mar 2026</text>

  <!-- sparkline: 7d activity -->
  
  <text x="728" y="176" fill="#383838" font-family="-apple-system, 'Segoe UI', sans-serif" font-size="9" font-weight="300" text-anchor="middle">7d</text>
  <rect x="708.0" y="196.4" width="4" height="7.6" rx="1" fill="#c8c8c8" opacity="0.41"/>
  <rect x="744.0" y="180.0" width="4" height="24.0" rx="1" fill="#c8c8c8" opacity="0.75"/>
  

  <!-- updated -->
  <text x="764" y="210" fill="#383838" font-family="-apple-system, 'Segoe UI', sans-serif" font-size="9" font-weight="300" text-anchor="end">may 26</text>

  </g>
</svg>