<svg xmlns="http://www.w3.org/2000/svg" width="800" height="220" viewBox="0 0 800 220">
  <defs>
    <clipPath id="card"><rect width="800" height="220" rx="4"/></clipPath>
  </defs>
  <g clip-path="url(#card)">
  <rect width="800" height="220" rx="4" fill="#262626"/>

  <!-- constellation background -->
  <g opacity="0.6">
  <line x1="686.7" y1="89.2" x2="672.9" y2="51.6" stroke="#303030" stroke-width="0.5"/>
  <line x1="686.7" y1="89.2" x2="668.2" y2="37.5" stroke="#303030" stroke-width="0.5"/>
  <line x1="686.7" y1="89.2" x2="722.2" y2="81.0" stroke="#303030" stroke-width="0.5"/>
  <line x1="686.7" y1="89.2" x2="676.1" y2="64.4" stroke="#303030" stroke-width="0.5"/>
  <line x1="686.7" y1="89.2" x2="705.2" y2="83.2" stroke="#303030" stroke-width="0.5"/>
  <line x1="686.7" y1="89.2" x2="693.1" y2="47.4" stroke="#303030" stroke-width="0.5"/>
  <line x1="686.7" y1="89.2" x2="684.5" y2="86.4" stroke="#303030" stroke-width="0.5"/>
  <line x1="747.2" y1="82.7" x2="757.9" y2="103.7" stroke="#303030" stroke-width="0.5"/>
  <line x1="747.2" y1="82.7" x2="722.2" y2="81.0" stroke="#303030" stroke-width="0.5"/>
  <line x1="672.9" y1="51.6" x2="668.2" y2="37.5" stroke="#303030" stroke-width="0.5"/>
  <line x1="672.9" y1="51.6" x2="676.1" y2="64.4" stroke="#303030" stroke-width="0.5"/>
  <line x1="672.9" y1="51.6" x2="705.2" y2="83.2" stroke="#303030" stroke-width="0.5"/>
  <line x1="672.9" y1="51.6" x2="693.1" y2="47.4" stroke="#303030" stroke-width="0.5"/>
  <line x1="582.9" y1="112.0" x2="622.4" y2="88.7" stroke="#303030" stroke-width="0.5"/>
  <line x1="582.9" y1="112.0" x2="608.9" y2="136.3" stroke="#303030" stroke-width="0.5"/>
  <line x1="588.8" y1="117.2" x2="622.4" y2="88.7" stroke="#303030" stroke-width="0.5"/>
  <line x1="588.8" y1="117.2" x2="588.3" y2="73.2" stroke="#303030" stroke-width="0.5"/>
  <line x1="668.2" y1="37.5" x2="676.1" y2="64.4" stroke="#303030" stroke-width="0.5"/>
  <line x1="668.2" y1="37.5" x2="693.1" y2="47.4" stroke="#303030" stroke-width="0.5"/>
  <line x1="757.9" y1="103.7" x2="722.2" y2="81.0" stroke="#303030" stroke-width="0.5"/>
  <line x1="757.9" y1="103.7" x2="705.2" y2="83.2" stroke="#303030" stroke-width="0.5"/>
  <line x1="639.6" y1="149.6" x2="663.6" y2="202.8" stroke="#303030" stroke-width="0.5"/>
  <line x1="639.6" y1="149.6" x2="686.0" y2="139.3" stroke="#303030" stroke-width="0.5"/>
  <line x1="722.2" y1="81.0" x2="705.2" y2="83.2" stroke="#303030" stroke-width="0.5"/>
  <line x1="722.2" y1="81.0" x2="693.1" y2="47.4" stroke="#303030" stroke-width="0.5"/>
  <line x1="722.2" y1="81.0" x2="684.5" y2="86.4" stroke="#303030" stroke-width="0.5"/>
  <line x1="676.1" y1="64.4" x2="684.5" y2="86.4" stroke="#303030" stroke-width="0.5"/>
  <line x1="705.2" y1="83.2" x2="686.0" y2="139.3" stroke="#303030" stroke-width="0.5"/>
  <line x1="705.2" y1="83.2" x2="693.1" y2="47.4" stroke="#303030" stroke-width="0.5"/>
  <line x1="705.2" y1="83.2" x2="684.5" y2="86.4" stroke="#303030" stroke-width="0.5"/>
  <line x1="622.4" y1="88.7" x2="588.3" y2="73.2" stroke="#303030" stroke-width="0.5"/>
  <line x1="622.4" y1="88.7" x2="608.9" y2="136.3" stroke="#303030" stroke-width="0.5"/>
  <circle cx="686.7" cy="89.2" r="1.0" fill="#383838"/>
  <circle cx="747.2" cy="82.7" r="1.8" fill="#484848"/>
  <circle cx="672.9" cy="51.6" r="1.1" fill="#484848"/>
  <circle cx="582.9" cy="112.0" r="1.0" fill="#484848"/>
  <circle cx="588.8" cy="117.2" r="1.5" fill="#383838"/>
  <circle cx="668.2" cy="37.5" r="2.6" fill="#383838"/>
  <circle cx="757.9" cy="103.7" r="1.9" fill="#484848"/>
  <circle cx="639.6" cy="149.6" r="1.9" fill="#383838"/>
  <circle cx="722.2" cy="81.0" r="1.8" fill="#484848"/>
  <circle cx="676.1" cy="64.4" r="2.2" fill="#383838"/>
  <circle cx="705.2" cy="83.2" r="2.6" fill="#383838"/>
  <circle cx="622.4" cy="88.7" r="2.8" fill="#484848"/>
  <circle cx="588.3" cy="73.2" r="1.9" fill="#383838"/>
  <circle cx="663.6" cy="202.8" r="2.1" fill="#383838"/>
  <circle cx="608.9" cy="136.3" r="2.4" fill="#383838"/>
  <circle cx="686.0" cy="139.3" r="1.5" fill="#484848"/>
  <circle cx="693.1" cy="47.4" r="2.7" fill="#484848"/>
  <circle cx="684.5" cy="86.4" r="2.7" fill="#383838"/>
  </g>

  <!-- top border -->
  <line x1="32" y1="0" x2="768" y2="0" stroke="#303030" stroke-width="1"/>

  <!-- header row -->
  <text x="36" y="40" fill="#e8e8e8" font-family="-apple-system, 'Segoe UI', sans-serif" font-size="16" font-weight="400" letter-spacing="-0.02em">ohm.</text>
  <text x="82" y="40" fill="#484848" font-family="-apple-system, 'Segoe UI', sans-serif" font-size="12" font-weight="300" letter-spacing="-0.01em">i built a neural net that watches me code</text>

  <!-- divider -->
  <line x1="36" y1="56" x2="764" y2="56" stroke="#303030" stroke-width="0.5"/>

  <!-- main content -->
  <text x="36" y="82" fill="#484848" font-family="-apple-system, 'Segoe UI', sans-serif" font-size="10" font-weight="300" letter-spacing="0.04em">currently building</text>
  <text x="36" y="102" fill="#c8c8c8" font-family="-apple-system, 'Segoe UI', sans-serif" font-size="13" font-weight="400" letter-spacing="-0.01em">sap  ·  sheets ai  ·  ohm-personal</text>

  <!-- stats row -->
  <text x="36" y="134" fill="#aaa" font-family="-apple-system, 'Segoe UI', sans-serif" font-size="11" font-weight="300">582 nodes</text>
  <text x="120" y="134" fill="#383838" font-family="-apple-system, 'Segoe UI', sans-serif" font-size="11" font-weight="300">·</text>
  <text x="132" y="134" fill="#aaa" font-family="-apple-system, 'Segoe UI', sans-serif" font-size="11" font-weight="300">9.3k edges</text>
  <text x="230" y="134" fill="#383838" font-family="-apple-system, 'Segoe UI', sans-serif" font-size="11" font-weight="300">·</text>
  <text x="242" y="134" fill="#aaa" font-family="-apple-system, 'Segoe UI', sans-serif" font-size="11" font-weight="300">11 projects</text>
  <text x="330" y="134" fill="#383838" font-family="-apple-system, 'Segoe UI', sans-serif" font-size="11" font-weight="300">·</text>
  <text x="342" y="134" fill="#aaa" font-family="-apple-system, 'Segoe UI', sans-serif" font-size="11" font-weight="300">15 milestones</text>

  <!-- divider -->
  <line x1="36" y1="152" x2="764" y2="152" stroke="#303030" stroke-width="0.5"/>

  <!-- bottom row -->
  <text x="36" y="176" fill="#c8c8c8" font-family="-apple-system, 'Segoe UI', sans-serif" font-size="12" font-weight="300">3 day build streak</text>
  <text x="36" y="196" fill="#484848" font-family="-apple-system, 'Segoe UI', sans-serif" font-size="10" font-weight="300">shipping since mar 2026</text>

  <!-- sparkline: 7d activity -->
  
  <text x="728" y="176" fill="#383838" font-family="-apple-system, 'Segoe UI', sans-serif" font-size="9" font-weight="300" text-anchor="middle">7d</text>
  <rect x="708.0" y="196.4" width="4" height="7.6" rx="1" fill="#c8c8c8" opacity="0.41"/>
  <rect x="744.0" y="180.0" width="4" height="24.0" rx="1" fill="#c8c8c8" opacity="0.75"/>
  

  <!-- updated -->
  <text x="764" y="210" fill="#383838" font-family="-apple-system, 'Segoe UI', sans-serif" font-size="9" font-weight="300" text-anchor="end">mar 25</text>

  </g>
</svg>