<svg xmlns="http://www.w3.org/2000/svg" width="800" height="220" viewBox="0 0 800 220">
  <defs>
    <clipPath id="card"><rect width="800" height="220" rx="4"/></clipPath>
  </defs>
  <g clip-path="url(#card)">
  <rect width="800" height="220" rx="4" fill="#262626"/>

  <!-- constellation background -->
  <g opacity="0.6">
  <line x1="587.9" y1="64.3" x2="636.8" y2="80.3" stroke="#303030" stroke-width="0.5"/>
  <line x1="587.9" y1="64.3" x2="578.9" y2="77.2" stroke="#303030" stroke-width="0.5"/>
  <line x1="682.6" y1="194.2" x2="677.4" y2="137.5" stroke="#303030" stroke-width="0.5"/>
  <line x1="682.6" y1="194.2" x2="625.4" y2="190.6" stroke="#303030" stroke-width="0.5"/>
  <line x1="583.4" y1="157.0" x2="625.4" y2="190.6" stroke="#303030" stroke-width="0.5"/>
  <line x1="677.4" y1="137.5" x2="679.8" y2="159.1" stroke="#303030" stroke-width="0.5"/>
  <line x1="677.4" y1="137.5" x2="679.8" y2="83.9" stroke="#303030" stroke-width="0.5"/>
  <line x1="636.8" y1="80.3" x2="648.8" y2="66.4" stroke="#303030" stroke-width="0.5"/>
  <line x1="636.8" y1="80.3" x2="662.9" y2="48.8" stroke="#303030" stroke-width="0.5"/>
  <line x1="636.8" y1="80.3" x2="578.9" y2="77.2" stroke="#303030" stroke-width="0.5"/>
  <line x1="636.8" y1="80.3" x2="691.8" y2="71.8" stroke="#303030" stroke-width="0.5"/>
  <line x1="733.0" y1="125.3" x2="707.9" y2="170.4" stroke="#303030" stroke-width="0.5"/>
  <line x1="648.8" y1="66.4" x2="657.1" y2="37.8" stroke="#303030" stroke-width="0.5"/>
  <line x1="648.8" y1="66.4" x2="679.8" y2="83.9" stroke="#303030" stroke-width="0.5"/>
  <line x1="657.1" y1="37.8" x2="662.9" y2="48.8" stroke="#303030" stroke-width="0.5"/>
  <line x1="657.1" y1="37.8" x2="679.8" y2="83.9" stroke="#303030" stroke-width="0.5"/>
  <line x1="657.1" y1="37.8" x2="710.3" y2="37.0" stroke="#303030" stroke-width="0.5"/>
  <line x1="657.1" y1="37.8" x2="691.8" y2="71.8" stroke="#303030" stroke-width="0.5"/>
  <line x1="662.9" y1="48.8" x2="713.4" y2="59.0" stroke="#303030" stroke-width="0.5"/>
  <line x1="662.9" y1="48.8" x2="679.8" y2="83.9" stroke="#303030" stroke-width="0.5"/>
  <line x1="662.9" y1="48.8" x2="715.1" y2="71.1" stroke="#303030" stroke-width="0.5"/>
  <line x1="662.9" y1="48.8" x2="710.3" y2="37.0" stroke="#303030" stroke-width="0.5"/>
  <line x1="713.4" y1="59.0" x2="679.8" y2="83.9" stroke="#303030" stroke-width="0.5"/>
  <line x1="713.4" y1="59.0" x2="710.3" y2="37.0" stroke="#303030" stroke-width="0.5"/>
  <line x1="713.4" y1="59.0" x2="691.8" y2="71.8" stroke="#303030" stroke-width="0.5"/>
  <line x1="679.8" y1="83.9" x2="710.3" y2="37.0" stroke="#303030" stroke-width="0.5"/>
  <circle cx="587.9" cy="64.3" r="2.2" fill="#383838"/>
  <circle cx="682.6" cy="194.2" r="1.2" fill="#383838"/>
  <circle cx="583.4" cy="157.0" r="1.6" fill="#383838"/>
  <circle cx="677.4" cy="137.5" r="1.6" fill="#383838"/>
  <circle cx="636.8" cy="80.3" r="2.4" fill="#383838"/>
  <circle cx="733.0" cy="125.3" r="2.6" fill="#383838"/>
  <circle cx="625.4" cy="190.6" r="2.4" fill="#484848"/>
  <circle cx="648.8" cy="66.4" r="1.4" fill="#383838"/>
  <circle cx="679.8" cy="159.1" r="2.4" fill="#383838"/>
  <circle cx="657.1" cy="37.8" r="1.9" fill="#383838"/>
  <circle cx="662.9" cy="48.8" r="2.6" fill="#383838"/>
  <circle cx="578.9" cy="77.2" r="2.3" fill="#383838"/>
  <circle cx="713.4" cy="59.0" r="1.5" fill="#383838"/>
  <circle cx="679.8" cy="83.9" r="1.3" fill="#383838"/>
  <circle cx="715.1" cy="71.1" r="1.5" fill="#383838"/>
  <circle cx="707.9" cy="170.4" r="2.0" fill="#383838"/>
  <circle cx="710.3" cy="37.0" r="1.4" fill="#383838"/>
  <circle cx="691.8" cy="71.8" r="1.8" fill="#383838"/>
  </g>

  <!-- top border -->
  <line x1="32" y1="0" x2="768" y2="0" stroke="#303030" stroke-width="1"/>

  <!-- header row -->
  <text x="36" y="40" fill="#e8e8e8" font-family="-apple-system, 'Segoe UI', sans-serif" font-size="16" font-weight="400" letter-spacing="-0.02em">ohm.</text>
  <text x="82" y="40" fill="#484848" font-family="-apple-system, 'Segoe UI', sans-serif" font-size="12" font-weight="300" letter-spacing="-0.01em">i built a neural net that watches me code</text>

  <!-- divider -->
  <line x1="36" y1="56" x2="764" y2="56" stroke="#303030" stroke-width="0.5"/>

  <!-- main content -->
  <text x="36" y="82" fill="#484848" font-family="-apple-system, 'Segoe UI', sans-serif" font-size="10" font-weight="300" letter-spacing="0.04em">currently building</text>
  <text x="36" y="102" fill="#c8c8c8" font-family="-apple-system, 'Segoe UI', sans-serif" font-size="13" font-weight="400" letter-spacing="-0.01em">sap  ·  sheets ai  ·  ohm-personal</text>

  <!-- stats row -->
  <text x="36" y="134" fill="#aaa" font-family="-apple-system, 'Segoe UI', sans-serif" font-size="11" font-weight="300">639 nodes</text>
  <text x="120" y="134" fill="#383838" font-family="-apple-system, 'Segoe UI', sans-serif" font-size="11" font-weight="300">·</text>
  <text x="132" y="134" fill="#aaa" font-family="-apple-system, 'Segoe UI', sans-serif" font-size="11" font-weight="300">7.3k edges</text>
  <text x="230" y="134" fill="#383838" font-family="-apple-system, 'Segoe UI', sans-serif" font-size="11" font-weight="300">·</text>
  <text x="242" y="134" fill="#aaa" font-family="-apple-system, 'Segoe UI', sans-serif" font-size="11" font-weight="300">14 projects</text>
  <text x="330" y="134" fill="#383838" font-family="-apple-system, 'Segoe UI', sans-serif" font-size="11" font-weight="300">·</text>
  <text x="342" y="134" fill="#aaa" font-family="-apple-system, 'Segoe UI', sans-serif" font-size="11" font-weight="300">15 milestones</text>

  <!-- divider -->
  <line x1="36" y1="152" x2="764" y2="152" stroke="#303030" stroke-width="0.5"/>

  <!-- bottom row -->
  <text x="36" y="176" fill="#c8c8c8" font-family="-apple-system, 'Segoe UI', sans-serif" font-size="12" font-weight="300">3 day build streak</text>
  <text x="36" y="196" fill="#484848" font-family="-apple-system, 'Segoe UI', sans-serif" font-size="10" font-weight="300">shipping since mar 2026</text>

  <!-- sparkline: 7d activity -->
  
  <text x="728" y="176" fill="#383838" font-family="-apple-system, 'Segoe UI', sans-serif" font-size="9" font-weight="300" text-anchor="middle">7d</text>
  <rect x="708.0" y="196.4" width="4" height="7.6" rx="1" fill="#c8c8c8" opacity="0.41"/>
  <rect x="744.0" y="180.0" width="4" height="24.0" rx="1" fill="#c8c8c8" opacity="0.75"/>
  

  <!-- updated -->
  <text x="764" y="210" fill="#383838" font-family="-apple-system, 'Segoe UI', sans-serif" font-size="9" font-weight="300" text-anchor="end">mar 25</text>

  </g>
</svg>