<svg xmlns="http://www.w3.org/2000/svg" width="800" height="220" viewBox="0 0 800 220">
  <defs>
    <clipPath id="card"><rect width="800" height="220" rx="4"/></clipPath>
  </defs>
  <g clip-path="url(#card)">
  <rect width="800" height="220" rx="4" fill="#262626"/>

  <!-- constellation background -->
  <g opacity="0.6">
  <line x1="657.2" y1="76.9" x2="636.0" y2="129.8" stroke="#303030" stroke-width="0.5"/>
  <line x1="643.4" y1="72.7" x2="695.4" y2="68.0" stroke="#303030" stroke-width="0.5"/>
  <line x1="643.4" y1="72.7" x2="601.9" y2="94.2" stroke="#303030" stroke-width="0.5"/>
  <line x1="636.0" y1="129.8" x2="596.5" y2="139.6" stroke="#303030" stroke-width="0.5"/>
  <line x1="636.0" y1="129.8" x2="645.9" y2="160.5" stroke="#303030" stroke-width="0.5"/>
  <line x1="636.0" y1="129.8" x2="624.5" y2="170.1" stroke="#303030" stroke-width="0.5"/>
  <line x1="636.0" y1="129.8" x2="678.6" y2="147.1" stroke="#303030" stroke-width="0.5"/>
  <line x1="636.0" y1="129.8" x2="601.9" y2="94.2" stroke="#303030" stroke-width="0.5"/>
  <line x1="636.0" y1="129.8" x2="596.7" y2="108.8" stroke="#303030" stroke-width="0.5"/>
  <line x1="691.8" y1="119.2" x2="653.6" y2="144.9" stroke="#303030" stroke-width="0.5"/>
  <line x1="691.8" y1="119.2" x2="678.6" y2="147.1" stroke="#303030" stroke-width="0.5"/>
  <line x1="615.9" y1="136.9" x2="653.6" y2="144.9" stroke="#303030" stroke-width="0.5"/>
  <line x1="615.9" y1="136.9" x2="645.9" y2="160.5" stroke="#303030" stroke-width="0.5"/>
  <line x1="615.9" y1="136.9" x2="624.5" y2="170.1" stroke="#303030" stroke-width="0.5"/>
  <line x1="615.9" y1="136.9" x2="632.1" y2="80.2" stroke="#303030" stroke-width="0.5"/>
  <line x1="615.9" y1="136.9" x2="596.7" y2="108.8" stroke="#303030" stroke-width="0.5"/>
  <line x1="596.5" y1="139.6" x2="645.9" y2="160.5" stroke="#303030" stroke-width="0.5"/>
  <line x1="596.5" y1="139.6" x2="601.9" y2="94.2" stroke="#303030" stroke-width="0.5"/>
  <line x1="653.6" y1="144.9" x2="645.9" y2="160.5" stroke="#303030" stroke-width="0.5"/>
  <line x1="653.6" y1="144.9" x2="678.6" y2="147.1" stroke="#303030" stroke-width="0.5"/>
  <line x1="645.9" y1="160.5" x2="624.5" y2="170.1" stroke="#303030" stroke-width="0.5"/>
  <line x1="645.9" y1="160.5" x2="607.8" y2="194.3" stroke="#303030" stroke-width="0.5"/>
  <line x1="624.5" y1="170.1" x2="678.6" y2="147.1" stroke="#303030" stroke-width="0.5"/>
  <line x1="706.5" y1="154.5" x2="678.6" y2="147.1" stroke="#303030" stroke-width="0.5"/>
  <line x1="632.1" y1="80.2" x2="601.9" y2="94.2" stroke="#303030" stroke-width="0.5"/>
  <line x1="601.9" y1="94.2" x2="596.7" y2="108.8" stroke="#303030" stroke-width="0.5"/>
  <circle cx="692.8" cy="165.3" r="1.8" fill="#383838"/>
  <circle cx="657.2" cy="76.9" r="1.7" fill="#484848"/>
  <circle cx="643.4" cy="72.7" r="2.3" fill="#383838"/>
  <circle cx="723.7" cy="35.3" r="1.5" fill="#383838"/>
  <circle cx="636.0" cy="129.8" r="2.7" fill="#383838"/>
  <circle cx="691.8" cy="119.2" r="1.2" fill="#484848"/>
  <circle cx="615.9" cy="136.9" r="1.6" fill="#383838"/>
  <circle cx="596.5" cy="139.6" r="2.4" fill="#484848"/>
  <circle cx="653.6" cy="144.9" r="1.0" fill="#383838"/>
  <circle cx="645.9" cy="160.5" r="2.3" fill="#383838"/>
  <circle cx="624.5" cy="170.1" r="1.7" fill="#484848"/>
  <circle cx="706.5" cy="154.5" r="1.8" fill="#383838"/>
  <circle cx="632.1" cy="80.2" r="1.5" fill="#383838"/>
  <circle cx="678.6" cy="147.1" r="2.5" fill="#484848"/>
  <circle cx="607.8" cy="194.3" r="2.2" fill="#383838"/>
  <circle cx="695.4" cy="68.0" r="2.5" fill="#383838"/>
  <circle cx="601.9" cy="94.2" r="2.0" fill="#484848"/>
  <circle cx="596.7" cy="108.8" r="2.3" fill="#484848"/>
  </g>

  <!-- top border -->
  <line x1="32" y1="0" x2="768" y2="0" stroke="#303030" stroke-width="1"/>

  <!-- header row -->
  <text x="36" y="40" fill="#e8e8e8" font-family="-apple-system, 'Segoe UI', sans-serif" font-size="16" font-weight="400" letter-spacing="-0.02em">ohm.</text>
  <text x="82" y="40" fill="#484848" font-family="-apple-system, 'Segoe UI', sans-serif" font-size="12" font-weight="300" letter-spacing="-0.01em">i built a neural net that watches me code</text>

  <!-- divider -->
  <line x1="36" y1="56" x2="764" y2="56" stroke="#303030" stroke-width="0.5"/>

  <!-- main content -->
  <text x="36" y="82" fill="#484848" font-family="-apple-system, 'Segoe UI', sans-serif" font-size="10" font-weight="300" letter-spacing="0.04em">currently building</text>
  <text x="36" y="102" fill="#c8c8c8" font-family="-apple-system, 'Segoe UI', sans-serif" font-size="13" font-weight="400" letter-spacing="-0.01em">candid  ·  ruasafterclass  ·  ohm-spotify</text>

  <!-- stats row -->
  <text x="36" y="134" fill="#aaa" font-family="-apple-system, 'Segoe UI', sans-serif" font-size="11" font-weight="300">6.0k nodes</text>
  <text x="120" y="134" fill="#383838" font-family="-apple-system, 'Segoe UI', sans-serif" font-size="11" font-weight="300">·</text>
  <text x="132" y="134" fill="#aaa" font-family="-apple-system, 'Segoe UI', sans-serif" font-size="11" font-weight="300">146.5k edges</text>
  <text x="230" y="134" fill="#383838" font-family="-apple-system, 'Segoe UI', sans-serif" font-size="11" font-weight="300">·</text>
  <text x="242" y="134" fill="#aaa" font-family="-apple-system, 'Segoe UI', sans-serif" font-size="11" font-weight="300">81 projects</text>
  <text x="330" y="134" fill="#383838" font-family="-apple-system, 'Segoe UI', sans-serif" font-size="11" font-weight="300">·</text>
  <text x="342" y="134" fill="#aaa" font-family="-apple-system, 'Segoe UI', sans-serif" font-size="11" font-weight="300">18 milestones</text>

  <!-- divider -->
  <line x1="36" y1="152" x2="764" y2="152" stroke="#303030" stroke-width="0.5"/>

  <!-- bottom row -->
  <text x="36" y="176" fill="#c8c8c8" font-family="-apple-system, 'Segoe UI', sans-serif" font-size="12" font-weight="300">5 day build streak</text>
  <text x="36" y="196" fill="#484848" font-family="-apple-system, 'Segoe UI', sans-serif" font-size="10" font-weight="300">shipping since mar 2026</text>

  <!-- sparkline: 7d activity -->
  
  <text x="728" y="176" fill="#383838" font-family="-apple-system, 'Segoe UI', sans-serif" font-size="9" font-weight="300" text-anchor="middle">7d</text>
  <rect x="708.0" y="196.4" width="4" height="7.6" rx="1" fill="#c8c8c8" opacity="0.41"/>
  <rect x="744.0" y="180.0" width="4" height="24.0" rx="1" fill="#c8c8c8" opacity="0.75"/>
  

  <!-- updated -->
  <text x="764" y="210" fill="#383838" font-family="-apple-system, 'Segoe UI', sans-serif" font-size="9" font-weight="300" text-anchor="end">may 4</text>

  </g>
</svg>