<svg xmlns="http://www.w3.org/2000/svg" width="800" height="220" viewBox="0 0 800 220">
  <defs>
    <clipPath id="card"><rect width="800" height="220" rx="4"/></clipPath>
  </defs>
  <g clip-path="url(#card)">
  <rect width="800" height="220" rx="4" fill="#262626"/>

  <!-- constellation background -->
  <g opacity="0.6">
  <line x1="588.3" y1="104.8" x2="566.5" y2="88.2" stroke="#303030" stroke-width="0.5"/>
  <line x1="588.3" y1="104.8" x2="582.8" y2="81.7" stroke="#303030" stroke-width="0.5"/>
  <line x1="588.3" y1="104.8" x2="628.5" y2="122.1" stroke="#303030" stroke-width="0.5"/>
  <line x1="588.3" y1="104.8" x2="625.5" y2="98.5" stroke="#303030" stroke-width="0.5"/>
  <line x1="588.3" y1="104.8" x2="634.6" y2="66.6" stroke="#303030" stroke-width="0.5"/>
  <line x1="588.3" y1="104.8" x2="620.2" y2="63.3" stroke="#303030" stroke-width="0.5"/>
  <line x1="713.4" y1="120.9" x2="742.4" y2="133.6" stroke="#303030" stroke-width="0.5"/>
  <line x1="566.5" y1="88.2" x2="582.8" y2="81.7" stroke="#303030" stroke-width="0.5"/>
  <line x1="566.5" y1="88.2" x2="625.5" y2="98.5" stroke="#303030" stroke-width="0.5"/>
  <line x1="566.5" y1="88.2" x2="620.2" y2="63.3" stroke="#303030" stroke-width="0.5"/>
  <line x1="634.7" y1="167.6" x2="628.5" y2="122.1" stroke="#303030" stroke-width="0.5"/>
  <line x1="634.7" y1="167.6" x2="637.4" y2="130.5" stroke="#303030" stroke-width="0.5"/>
  <line x1="706.2" y1="130.4" x2="715.5" y2="146.4" stroke="#303030" stroke-width="0.5"/>
  <line x1="706.2" y1="130.4" x2="691.2" y2="87.7" stroke="#303030" stroke-width="0.5"/>
  <line x1="706.2" y1="130.4" x2="742.4" y2="133.6" stroke="#303030" stroke-width="0.5"/>
  <line x1="715.5" y1="146.4" x2="742.4" y2="133.6" stroke="#303030" stroke-width="0.5"/>
  <line x1="715.5" y1="146.4" x2="728.5" y2="135.6" stroke="#303030" stroke-width="0.5"/>
  <line x1="582.8" y1="81.7" x2="625.5" y2="98.5" stroke="#303030" stroke-width="0.5"/>
  <line x1="582.8" y1="81.7" x2="620.2" y2="63.3" stroke="#303030" stroke-width="0.5"/>
  <line x1="637.4" y1="130.5" x2="625.5" y2="98.5" stroke="#303030" stroke-width="0.5"/>
  <line x1="703.3" y1="80.2" x2="691.2" y2="87.7" stroke="#303030" stroke-width="0.5"/>
  <line x1="625.5" y1="98.5" x2="634.6" y2="66.6" stroke="#303030" stroke-width="0.5"/>
  <line x1="634.6" y1="66.6" x2="620.2" y2="63.3" stroke="#303030" stroke-width="0.5"/>
  <circle cx="588.3" cy="104.8" r="2.7" fill="#383838"/>
  <circle cx="713.4" cy="120.9" r="1.5" fill="#383838"/>
  <circle cx="606.7" cy="185.6" r="2.6" fill="#484848"/>
  <circle cx="566.5" cy="88.2" r="1.1" fill="#383838"/>
  <circle cx="716.6" cy="179.7" r="2.4" fill="#383838"/>
  <circle cx="634.7" cy="167.6" r="2.7" fill="#383838"/>
  <circle cx="706.2" cy="130.4" r="1.9" fill="#484848"/>
  <circle cx="715.5" cy="146.4" r="1.4" fill="#383838"/>
  <circle cx="582.8" cy="81.7" r="2.7" fill="#383838"/>
  <circle cx="628.5" cy="122.1" r="1.6" fill="#484848"/>
  <circle cx="637.4" cy="130.5" r="2.8" fill="#383838"/>
  <circle cx="703.3" cy="80.2" r="2.2" fill="#383838"/>
  <circle cx="691.2" cy="87.7" r="2.3" fill="#383838"/>
  <circle cx="625.5" cy="98.5" r="1.1" fill="#484848"/>
  <circle cx="634.6" cy="66.6" r="1.2" fill="#484848"/>
  <circle cx="742.4" cy="133.6" r="2.7" fill="#484848"/>
  <circle cx="728.5" cy="135.6" r="2.2" fill="#383838"/>
  <circle cx="620.2" cy="63.3" r="1.1" fill="#383838"/>
  </g>

  <!-- top border -->
  <line x1="32" y1="0" x2="768" y2="0" stroke="#303030" stroke-width="1"/>

  <!-- header row -->
  <text x="36" y="40" fill="#e8e8e8" font-family="-apple-system, 'Segoe UI', sans-serif" font-size="16" font-weight="400" letter-spacing="-0.02em">ohm.</text>
  <text x="82" y="40" fill="#484848" font-family="-apple-system, 'Segoe UI', sans-serif" font-size="12" font-weight="300" letter-spacing="-0.01em">i built a neural net that watches me code</text>

  <!-- divider -->
  <line x1="36" y1="56" x2="764" y2="56" stroke="#303030" stroke-width="0.5"/>

  <!-- main content -->
  <text x="36" y="82" fill="#484848" font-family="-apple-system, 'Segoe UI', sans-serif" font-size="10" font-weight="300" letter-spacing="0.04em">currently building</text>
  <text x="36" y="102" fill="#c8c8c8" font-family="-apple-system, 'Segoe UI', sans-serif" font-size="13" font-weight="400" letter-spacing="-0.01em">ohm-spotify  ·  timini-print  ·  ohm-ctrl</text>

  <!-- stats row -->
  <text x="36" y="134" fill="#aaa" font-family="-apple-system, 'Segoe UI', sans-serif" font-size="11" font-weight="300">2.2k nodes</text>
  <text x="120" y="134" fill="#383838" font-family="-apple-system, 'Segoe UI', sans-serif" font-size="11" font-weight="300">·</text>
  <text x="132" y="134" fill="#aaa" font-family="-apple-system, 'Segoe UI', sans-serif" font-size="11" font-weight="300">118.1k edges</text>
  <text x="230" y="134" fill="#383838" font-family="-apple-system, 'Segoe UI', sans-serif" font-size="11" font-weight="300">·</text>
  <text x="242" y="134" fill="#aaa" font-family="-apple-system, 'Segoe UI', sans-serif" font-size="11" font-weight="300">48 projects</text>
  <text x="330" y="134" fill="#383838" font-family="-apple-system, 'Segoe UI', sans-serif" font-size="11" font-weight="300">·</text>
  <text x="342" y="134" fill="#aaa" font-family="-apple-system, 'Segoe UI', sans-serif" font-size="11" font-weight="300">18 milestones</text>

  <!-- divider -->
  <line x1="36" y1="152" x2="764" y2="152" stroke="#303030" stroke-width="0.5"/>

  <!-- bottom row -->
  <text x="36" y="176" fill="#c8c8c8" font-family="-apple-system, 'Segoe UI', sans-serif" font-size="12" font-weight="300">4 day build streak</text>
  <text x="36" y="196" fill="#484848" font-family="-apple-system, 'Segoe UI', sans-serif" font-size="10" font-weight="300">shipping since mar 2026</text>

  <!-- sparkline: 7d activity -->
  
  <text x="728" y="176" fill="#383838" font-family="-apple-system, 'Segoe UI', sans-serif" font-size="9" font-weight="300" text-anchor="middle">7d</text>
  <rect x="708.0" y="196.4" width="4" height="7.6" rx="1" fill="#c8c8c8" opacity="0.41"/>
  <rect x="744.0" y="180.0" width="4" height="24.0" rx="1" fill="#c8c8c8" opacity="0.75"/>
  

  <!-- updated -->
  <text x="764" y="210" fill="#383838" font-family="-apple-system, 'Segoe UI', sans-serif" font-size="9" font-weight="300" text-anchor="end">apr 5</text>

  </g>
</svg>